<mxfile host="65bd71144e">
    <diagram name="Page-1" id="wrQ0MAuL0dUaQwP501PG">
        <mxGraphModel dx="2930" dy="2520" grid="1" gridSize="10" guides="1" tooltips="1" connect="1" arrows="1" fold="1" page="1" pageScale="1" pageWidth="850" pageHeight="1100" math="0" shadow="0">
            <root>
                <mxCell id="0"/>
                <mxCell id="1" parent="0"/>
                <mxCell id="4gBBqAU6jfUx5KSsTvPd-1" value="" style="rounded=0;whiteSpace=wrap;html=1;" parent="1" vertex="1">
                    <mxGeometry x="360" y="110" width="130" height="50" as="geometry"/>
                </mxCell>
                <mxCell id="4gBBqAU6jfUx5KSsTvPd-2" value="User" style="text;strokeColor=none;align=center;fillColor=none;html=1;verticalAlign=middle;whiteSpace=wrap;rounded=0;" parent="1" vertex="1">
                    <mxGeometry x="395" y="120" width="60" height="30" as="geometry"/>
                </mxCell>
                <mxCell id="4gBBqAU6jfUx5KSsTvPd-3" value="" style="ellipse;whiteSpace=wrap;html=1;" parent="1" vertex="1">
                    <mxGeometry x="245" y="20" width="100" height="50" as="geometry"/>
                </mxCell>
                <mxCell id="4gBBqAU6jfUx5KSsTvPd-4" value="User_Name" style="text;strokeColor=none;align=center;fillColor=none;html=1;verticalAlign=middle;whiteSpace=wrap;rounded=0;" parent="1" vertex="1">
                    <mxGeometry x="265" y="25" width="60" height="30" as="geometry"/>
                </mxCell>
                <mxCell id="4gBBqAU6jfUx5KSsTvPd-5" value="" style="endArrow=none;html=1;rounded=0;exitX=0;exitY=0.25;exitDx=0;exitDy=0;" parent="1" source="4gBBqAU6jfUx5KSsTvPd-1" target="4gBBqAU6jfUx5KSsTvPd-3" edge="1">
                    <mxGeometry width="50" height="50" relative="1" as="geometry">
                        <mxPoint x="400" y="310" as="sourcePoint"/>
                        <mxPoint x="450" y="260" as="targetPoint"/>
                    </mxGeometry>
                </mxCell>
                <mxCell id="4gBBqAU6jfUx5KSsTvPd-6" value="" style="ellipse;whiteSpace=wrap;html=1;" parent="1" vertex="1">
                    <mxGeometry x="370" y="10" width="100" height="50" as="geometry"/>
                </mxCell>
                <mxCell id="4gBBqAU6jfUx5KSsTvPd-7" value="Name" style="text;strokeColor=none;align=center;fillColor=none;html=1;verticalAlign=middle;whiteSpace=wrap;rounded=0;" parent="1" vertex="1">
                    <mxGeometry x="390" y="20" width="60" height="30" as="geometry"/>
                </mxCell>
                <mxCell id="4gBBqAU6jfUx5KSsTvPd-8" value="" style="ellipse;whiteSpace=wrap;html=1;" parent="1" vertex="1">
                    <mxGeometry x="360" y="-90" width="100" height="50" as="geometry"/>
                </mxCell>
                <mxCell id="4gBBqAU6jfUx5KSsTvPd-9" value="Last_Name" style="text;strokeColor=none;align=center;fillColor=none;html=1;verticalAlign=middle;whiteSpace=wrap;rounded=0;" parent="1" vertex="1">
                    <mxGeometry x="380" y="-80" width="60" height="30" as="geometry"/>
                </mxCell>
                <mxCell id="4gBBqAU6jfUx5KSsTvPd-10" value="" style="ellipse;whiteSpace=wrap;html=1;" parent="1" vertex="1">
                    <mxGeometry x="480" y="-60" width="100" height="50" as="geometry"/>
                </mxCell>
                <mxCell id="4gBBqAU6jfUx5KSsTvPd-11" value="First_Name" style="text;strokeColor=none;align=center;fillColor=none;html=1;verticalAlign=middle;whiteSpace=wrap;rounded=0;" parent="1" vertex="1">
                    <mxGeometry x="500" y="-50" width="60" height="30" as="geometry"/>
                </mxCell>
                <mxCell id="4gBBqAU6jfUx5KSsTvPd-12" value="" style="endArrow=none;html=1;rounded=0;entryX=0.396;entryY=0.98;entryDx=0;entryDy=0;entryPerimeter=0;exitX=1;exitY=0;exitDx=0;exitDy=0;" parent="1" source="4gBBqAU6jfUx5KSsTvPd-6" target="4gBBqAU6jfUx5KSsTvPd-10" edge="1">
                    <mxGeometry width="50" height="50" relative="1" as="geometry">
                        <mxPoint x="400" y="110" as="sourcePoint"/>
                        <mxPoint x="450" y="60" as="targetPoint"/>
                    </mxGeometry>
                </mxCell>
                <mxCell id="4gBBqAU6jfUx5KSsTvPd-13" value="" style="endArrow=none;html=1;rounded=0;entryX=0.5;entryY=1;entryDx=0;entryDy=0;exitX=0.5;exitY=0;exitDx=0;exitDy=0;" parent="1" source="4gBBqAU6jfUx5KSsTvPd-6" target="4gBBqAU6jfUx5KSsTvPd-8" edge="1">
                    <mxGeometry width="50" height="50" relative="1" as="geometry">
                        <mxPoint x="400" y="110" as="sourcePoint"/>
                        <mxPoint x="450" y="60" as="targetPoint"/>
                    </mxGeometry>
                </mxCell>
                <mxCell id="4gBBqAU6jfUx5KSsTvPd-14" value="" style="endArrow=none;html=1;rounded=0;entryX=0.5;entryY=1;entryDx=0;entryDy=0;exitX=0.452;exitY=0.028;exitDx=0;exitDy=0;exitPerimeter=0;" parent="1" source="4gBBqAU6jfUx5KSsTvPd-1" target="4gBBqAU6jfUx5KSsTvPd-6" edge="1">
                    <mxGeometry width="50" height="50" relative="1" as="geometry">
                        <mxPoint x="400" y="110" as="sourcePoint"/>
                        <mxPoint x="450" y="60" as="targetPoint"/>
                    </mxGeometry>
                </mxCell>
                <mxCell id="4gBBqAU6jfUx5KSsTvPd-16" value="" style="ellipse;whiteSpace=wrap;html=1;" parent="1" vertex="1">
                    <mxGeometry x="480" y="20" width="100" height="50" as="geometry"/>
                </mxCell>
                <mxCell id="4gBBqAU6jfUx5KSsTvPd-17" value="Sex" style="text;strokeColor=none;align=center;fillColor=none;html=1;verticalAlign=middle;whiteSpace=wrap;rounded=0;" parent="1" vertex="1">
                    <mxGeometry x="500" y="30" width="60" height="30" as="geometry"/>
                </mxCell>
                <mxCell id="4gBBqAU6jfUx5KSsTvPd-18" value="" style="endArrow=none;html=1;rounded=0;entryX=0.3;entryY=1.02;entryDx=0;entryDy=0;entryPerimeter=0;exitX=1;exitY=0;exitDx=0;exitDy=0;" parent="1" source="4gBBqAU6jfUx5KSsTvPd-1" target="4gBBqAU6jfUx5KSsTvPd-16" edge="1">
                    <mxGeometry width="50" height="50" relative="1" as="geometry">
                        <mxPoint x="400" y="110" as="sourcePoint"/>
                        <mxPoint x="450" y="60" as="targetPoint"/>
                    </mxGeometry>
                </mxCell>
                <mxCell id="4gBBqAU6jfUx5KSsTvPd-20" value="" style="ellipse;whiteSpace=wrap;html=1;" parent="1" vertex="1">
                    <mxGeometry x="220" y="130" width="100" height="50" as="geometry"/>
                </mxCell>
                <mxCell id="4gBBqAU6jfUx5KSsTvPd-21" value="Birth_Date" style="text;strokeColor=none;align=center;fillColor=none;html=1;verticalAlign=middle;whiteSpace=wrap;rounded=0;" parent="1" vertex="1">
                    <mxGeometry x="240" y="140" width="60" height="30" as="geometry"/>
                </mxCell>
                <mxCell id="4gBBqAU6jfUx5KSsTvPd-22" value="" style="endArrow=none;html=1;rounded=0;exitX=0.98;exitY=0.348;exitDx=0;exitDy=0;exitPerimeter=0;entryX=0;entryY=0.5;entryDx=0;entryDy=0;" parent="1" source="4gBBqAU6jfUx5KSsTvPd-20" target="4gBBqAU6jfUx5KSsTvPd-1" edge="1">
                    <mxGeometry width="50" height="50" relative="1" as="geometry">
                        <mxPoint x="400" y="110" as="sourcePoint"/>
                        <mxPoint x="450" y="60" as="targetPoint"/>
                    </mxGeometry>
                </mxCell>
                <mxCell id="4gBBqAU6jfUx5KSsTvPd-23" value="" style="ellipse;whiteSpace=wrap;html=1;" parent="1" vertex="1">
                    <mxGeometry x="550" y="90" width="100" height="50" as="geometry"/>
                </mxCell>
                <mxCell id="4gBBqAU6jfUx5KSsTvPd-24" value="Address" style="text;strokeColor=none;align=center;fillColor=none;html=1;verticalAlign=middle;whiteSpace=wrap;rounded=0;" parent="1" vertex="1">
                    <mxGeometry x="570" y="100" width="60" height="30" as="geometry"/>
                </mxCell>
                <mxCell id="4gBBqAU6jfUx5KSsTvPd-25" value="" style="endArrow=none;html=1;rounded=0;exitX=1;exitY=0.5;exitDx=0;exitDy=0;" parent="1" source="4gBBqAU6jfUx5KSsTvPd-1" target="4gBBqAU6jfUx5KSsTvPd-23" edge="1">
                    <mxGeometry width="50" height="50" relative="1" as="geometry">
                        <mxPoint x="400" y="110" as="sourcePoint"/>
                        <mxPoint x="450" y="60" as="targetPoint"/>
                    </mxGeometry>
                </mxCell>
                <mxCell id="4gBBqAU6jfUx5KSsTvPd-26" value="" style="ellipse;whiteSpace=wrap;html=1;" parent="1" vertex="1">
                    <mxGeometry x="510" y="170" width="100" height="50" as="geometry"/>
                </mxCell>
                <mxCell id="4gBBqAU6jfUx5KSsTvPd-27" value="Password" style="text;strokeColor=none;align=center;fillColor=none;html=1;verticalAlign=middle;whiteSpace=wrap;rounded=0;" parent="1" vertex="1">
                    <mxGeometry x="530" y="180" width="60" height="30" as="geometry"/>
                </mxCell>
                <mxCell id="4gBBqAU6jfUx5KSsTvPd-28" value="" style="endArrow=none;html=1;rounded=0;exitX=1;exitY=0.75;exitDx=0;exitDy=0;entryX=0;entryY=0;entryDx=0;entryDy=0;" parent="1" source="4gBBqAU6jfUx5KSsTvPd-1" target="4gBBqAU6jfUx5KSsTvPd-26" edge="1">
                    <mxGeometry width="50" height="50" relative="1" as="geometry">
                        <mxPoint x="400" y="110" as="sourcePoint"/>
                        <mxPoint x="450" y="60" as="targetPoint"/>
                    </mxGeometry>
                </mxCell>
                <mxCell id="4gBBqAU6jfUx5KSsTvPd-29" value="" style="ellipse;whiteSpace=wrap;html=1;" parent="1" vertex="1">
                    <mxGeometry x="180" y="60" width="100" height="50" as="geometry"/>
                </mxCell>
                <mxCell id="4gBBqAU6jfUx5KSsTvPd-30" value="Phone_Number" style="text;strokeColor=none;align=center;fillColor=none;html=1;verticalAlign=middle;whiteSpace=wrap;rounded=0;" parent="1" vertex="1">
                    <mxGeometry x="200" y="70" width="60" height="30" as="geometry"/>
                </mxCell>
                <mxCell id="4gBBqAU6jfUx5KSsTvPd-31" value="" style="endArrow=none;html=1;rounded=0;entryX=0;entryY=0.25;entryDx=0;entryDy=0;" parent="1" source="4gBBqAU6jfUx5KSsTvPd-29" target="4gBBqAU6jfUx5KSsTvPd-1" edge="1">
                    <mxGeometry width="50" height="50" relative="1" as="geometry">
                        <mxPoint x="400" y="110" as="sourcePoint"/>
                        <mxPoint x="450" y="60" as="targetPoint"/>
                    </mxGeometry>
                </mxCell>
                <mxCell id="4gBBqAU6jfUx5KSsTvPd-32" value="" style="ellipse;whiteSpace=wrap;html=1;" parent="1" vertex="1">
                    <mxGeometry x="275" y="-40" width="100" height="50" as="geometry"/>
                </mxCell>
                <mxCell id="4gBBqAU6jfUx5KSsTvPd-33" value="NIC" style="text;strokeColor=none;align=center;fillColor=none;html=1;verticalAlign=middle;whiteSpace=wrap;rounded=0;" parent="1" vertex="1">
                    <mxGeometry x="295" y="-30" width="60" height="30" as="geometry"/>
                </mxCell>
                <mxCell id="4gBBqAU6jfUx5KSsTvPd-34" value="" style="endArrow=none;html=1;rounded=0;entryX=0.736;entryY=0.956;entryDx=0;entryDy=0;entryPerimeter=0;" parent="1" target="4gBBqAU6jfUx5KSsTvPd-32" edge="1">
                    <mxGeometry width="50" height="50" relative="1" as="geometry">
                        <mxPoint x="400" y="110" as="sourcePoint"/>
                        <mxPoint x="450" y="60" as="targetPoint"/>
                    </mxGeometry>
                </mxCell>
                <mxCell id="4gBBqAU6jfUx5KSsTvPd-35" value="" style="ellipse;whiteSpace=wrap;html=1;" parent="1" vertex="1">
                    <mxGeometry x="600" y="30" width="100" height="50" as="geometry"/>
                </mxCell>
                <mxCell id="4gBBqAU6jfUx5KSsTvPd-36" value="Email" style="text;strokeColor=none;align=center;fillColor=none;html=1;verticalAlign=middle;whiteSpace=wrap;rounded=0;" parent="1" vertex="1">
                    <mxGeometry x="620" y="40" width="60" height="30" as="geometry"/>
                </mxCell>
                <mxCell id="4gBBqAU6jfUx5KSsTvPd-37" value="" style="endArrow=none;html=1;rounded=0;entryX=0;entryY=1;entryDx=0;entryDy=0;exitX=1;exitY=0.25;exitDx=0;exitDy=0;" parent="1" source="4gBBqAU6jfUx5KSsTvPd-1" target="4gBBqAU6jfUx5KSsTvPd-35" edge="1">
                    <mxGeometry width="50" height="50" relative="1" as="geometry">
                        <mxPoint x="400" y="110" as="sourcePoint"/>
                        <mxPoint x="450" y="60" as="targetPoint"/>
                    </mxGeometry>
                </mxCell>
                <mxCell id="4gBBqAU6jfUx5KSsTvPd-39" value="" style="ellipse;whiteSpace=wrap;html=1;direction=south;rotation=-105;" parent="1" vertex="1">
                    <mxGeometry x="140" y="170" width="50" height="100" as="geometry"/>
                </mxCell>
                <mxCell id="4gBBqAU6jfUx5KSsTvPd-40" value="&lt;u&gt;User_ID&lt;/u&gt;" style="text;strokeColor=none;align=center;fillColor=none;html=1;verticalAlign=middle;whiteSpace=wrap;rounded=0;rotation=-15;" parent="1" vertex="1">
                    <mxGeometry x="135" y="205" width="60" height="30" as="geometry"/>
                </mxCell>
                <mxCell id="4gBBqAU6jfUx5KSsTvPd-42" value="" style="ellipse;whiteSpace=wrap;html=1;" parent="1" vertex="1">
                    <mxGeometry x="600" y="140" width="100" height="50" as="geometry"/>
                </mxCell>
                <mxCell id="4gBBqAU6jfUx5KSsTvPd-43" value="Image_Path" style="text;strokeColor=none;align=center;fillColor=none;html=1;verticalAlign=middle;whiteSpace=wrap;rounded=0;" parent="1" vertex="1">
                    <mxGeometry x="620" y="150" width="60" height="30" as="geometry"/>
                </mxCell>
                <mxCell id="4gBBqAU6jfUx5KSsTvPd-44" value="" style="endArrow=none;html=1;rounded=0;entryX=0.02;entryY=0.34;entryDx=0;entryDy=0;entryPerimeter=0;exitX=1;exitY=0.75;exitDx=0;exitDy=0;" parent="1" source="4gBBqAU6jfUx5KSsTvPd-1" target="4gBBqAU6jfUx5KSsTvPd-42" edge="1">
                    <mxGeometry width="50" height="50" relative="1" as="geometry">
                        <mxPoint x="400" y="110" as="sourcePoint"/>
                        <mxPoint x="450" y="60" as="targetPoint"/>
                    </mxGeometry>
                </mxCell>
                <mxCell id="4gBBqAU6jfUx5KSsTvPd-45" value="" style="rounded=0;whiteSpace=wrap;html=1;" parent="1" vertex="1">
                    <mxGeometry x="100" y="320" width="130" height="50" as="geometry"/>
                </mxCell>
                <mxCell id="4gBBqAU6jfUx5KSsTvPd-46" value="Admin" style="text;strokeColor=none;align=center;fillColor=none;html=1;verticalAlign=middle;whiteSpace=wrap;rounded=0;" parent="1" vertex="1">
                    <mxGeometry x="130" y="330" width="60" height="30" as="geometry"/>
                </mxCell>
                <mxCell id="4gBBqAU6jfUx5KSsTvPd-49" value="" style="rounded=0;whiteSpace=wrap;html=1;" parent="1" vertex="1">
                    <mxGeometry x="360" y="320" width="130" height="50" as="geometry"/>
                </mxCell>
                <mxCell id="4gBBqAU6jfUx5KSsTvPd-50" value="Customer" style="text;strokeColor=none;align=center;fillColor=none;html=1;verticalAlign=middle;whiteSpace=wrap;rounded=0;" parent="1" vertex="1">
                    <mxGeometry x="395" y="330" width="60" height="30" as="geometry"/>
                </mxCell>
                <mxCell id="4gBBqAU6jfUx5KSsTvPd-54" value="" style="rounded=0;whiteSpace=wrap;html=1;" parent="1" vertex="1">
                    <mxGeometry x="230" y="500" width="130" height="50" as="geometry"/>
                </mxCell>
                <mxCell id="4gBBqAU6jfUx5KSsTvPd-55" value="" style="rounded=0;whiteSpace=wrap;html=1;" parent="1" vertex="1">
                    <mxGeometry x="530" y="500" width="130" height="50" as="geometry"/>
                </mxCell>
                <mxCell id="4gBBqAU6jfUx5KSsTvPd-56" value="Consumer" style="text;strokeColor=none;align=center;fillColor=none;html=1;verticalAlign=middle;whiteSpace=wrap;rounded=0;" parent="1" vertex="1">
                    <mxGeometry x="265" y="510" width="60" height="30" as="geometry"/>
                </mxCell>
                <mxCell id="4gBBqAU6jfUx5KSsTvPd-57" value="Worker" style="text;strokeColor=none;align=center;fillColor=none;html=1;verticalAlign=middle;whiteSpace=wrap;rounded=0;" parent="1" vertex="1">
                    <mxGeometry x="570" y="510" width="60" height="30" as="geometry"/>
                </mxCell>
                <mxCell id="4gBBqAU6jfUx5KSsTvPd-58" value="" style="ellipse;whiteSpace=wrap;html=1;aspect=fixed;" parent="1" vertex="1">
                    <mxGeometry x="410" y="410" width="30" height="30" as="geometry"/>
                </mxCell>
                <mxCell id="4gBBqAU6jfUx5KSsTvPd-61" value="" style="shape=link;html=1;rounded=0;entryX=0.5;entryY=0;entryDx=0;entryDy=0;exitX=0.5;exitY=1;exitDx=0;exitDy=0;" parent="1" source="4gBBqAU6jfUx5KSsTvPd-49" target="4gBBqAU6jfUx5KSsTvPd-58" edge="1">
                    <mxGeometry width="100" relative="1" as="geometry">
                        <mxPoint x="370" y="380" as="sourcePoint"/>
                        <mxPoint x="470" y="380" as="targetPoint"/>
                    </mxGeometry>
                </mxCell>
                <mxCell id="4gBBqAU6jfUx5KSsTvPd-62" value="" style="endArrow=none;html=1;rounded=0;exitX=0.578;exitY=-0.012;exitDx=0;exitDy=0;exitPerimeter=0;entryX=0;entryY=1;entryDx=0;entryDy=0;" parent="1" source="4gBBqAU6jfUx5KSsTvPd-54" target="4gBBqAU6jfUx5KSsTvPd-58" edge="1">
                    <mxGeometry width="50" height="50" relative="1" as="geometry">
                        <mxPoint x="400" y="410" as="sourcePoint"/>
                        <mxPoint x="450" y="360" as="targetPoint"/>
                    </mxGeometry>
                </mxCell>
                <mxCell id="4gBBqAU6jfUx5KSsTvPd-64" value="" style="endArrow=none;html=1;rounded=0;entryX=0.36;entryY=-0.044;entryDx=0;entryDy=0;entryPerimeter=0;exitX=1;exitY=1;exitDx=0;exitDy=0;" parent="1" source="4gBBqAU6jfUx5KSsTvPd-58" target="4gBBqAU6jfUx5KSsTvPd-55" edge="1">
                    <mxGeometry width="50" height="50" relative="1" as="geometry">
                        <mxPoint x="430" y="430" as="sourcePoint"/>
                        <mxPoint x="450" y="360" as="targetPoint"/>
                    </mxGeometry>
                </mxCell>
                <mxCell id="4gBBqAU6jfUx5KSsTvPd-65" value="O" style="text;strokeColor=none;align=center;fillColor=none;html=1;verticalAlign=middle;whiteSpace=wrap;rounded=0;" parent="1" vertex="1">
                    <mxGeometry x="400" y="410" width="50" height="30" as="geometry"/>
                </mxCell>
                <mxCell id="4gBBqAU6jfUx5KSsTvPd-66" value="" style="endArrow=none;html=1;rounded=0;entryX=0.5;entryY=1;entryDx=0;entryDy=0;exitX=0.5;exitY=0;exitDx=0;exitDy=0;" parent="1" source="4gBBqAU6jfUx5KSsTvPd-45" target="4gBBqAU6jfUx5KSsTvPd-1" edge="1">
                    <mxGeometry width="50" height="50" relative="1" as="geometry">
                        <mxPoint x="400" y="410" as="sourcePoint"/>
                        <mxPoint x="450" y="360" as="targetPoint"/>
                    </mxGeometry>
                </mxCell>
                <mxCell id="4gBBqAU6jfUx5KSsTvPd-67" value="" style="endArrow=none;html=1;rounded=0;entryX=0.5;entryY=1;entryDx=0;entryDy=0;exitX=0.5;exitY=0;exitDx=0;exitDy=0;" parent="1" source="4gBBqAU6jfUx5KSsTvPd-49" target="4gBBqAU6jfUx5KSsTvPd-1" edge="1">
                    <mxGeometry width="50" height="50" relative="1" as="geometry">
                        <mxPoint x="400" y="410" as="sourcePoint"/>
                        <mxPoint x="450" y="360" as="targetPoint"/>
                    </mxGeometry>
                </mxCell>
                <mxCell id="4gBBqAU6jfUx5KSsTvPd-70" value="" style="rounded=0;whiteSpace=wrap;html=1;" parent="1" vertex="1">
                    <mxGeometry x="-120" y="500" width="130" height="50" as="geometry"/>
                </mxCell>
                <mxCell id="4gBBqAU6jfUx5KSsTvPd-71" value="Service" style="text;strokeColor=none;align=center;fillColor=none;html=1;verticalAlign=middle;whiteSpace=wrap;rounded=0;" parent="1" vertex="1">
                    <mxGeometry x="-85" y="510" width="60" height="30" as="geometry"/>
                </mxCell>
                <mxCell id="4gBBqAU6jfUx5KSsTvPd-72" value="" style="ellipse;whiteSpace=wrap;html=1;" parent="1" vertex="1">
                    <mxGeometry x="-190" y="410" width="100" height="50" as="geometry"/>
                </mxCell>
                <mxCell id="4gBBqAU6jfUx5KSsTvPd-73" value="&lt;u&gt;Service_ID&lt;/u&gt;" style="text;strokeColor=none;align=center;fillColor=none;html=1;verticalAlign=middle;whiteSpace=wrap;rounded=0;" parent="1" vertex="1">
                    <mxGeometry x="-170" y="420" width="60" height="30" as="geometry"/>
                </mxCell>
                <mxCell id="4gBBqAU6jfUx5KSsTvPd-74" value="" style="endArrow=none;html=1;rounded=0;entryX=0.692;entryY=0.972;entryDx=0;entryDy=0;entryPerimeter=0;exitX=0.25;exitY=0;exitDx=0;exitDy=0;" parent="1" source="4gBBqAU6jfUx5KSsTvPd-70" target="4gBBqAU6jfUx5KSsTvPd-72" edge="1">
                    <mxGeometry width="50" height="50" relative="1" as="geometry">
                        <mxPoint x="190" y="510" as="sourcePoint"/>
                        <mxPoint x="240" y="460" as="targetPoint"/>
                    </mxGeometry>
                </mxCell>
                <mxCell id="4gBBqAU6jfUx5KSsTvPd-75" value="" style="ellipse;whiteSpace=wrap;html=1;" parent="1" vertex="1">
                    <mxGeometry x="-40" y="410" width="100" height="50" as="geometry"/>
                </mxCell>
                <mxCell id="4gBBqAU6jfUx5KSsTvPd-76" value="Name" style="text;strokeColor=none;align=center;fillColor=none;html=1;verticalAlign=middle;whiteSpace=wrap;rounded=0;" parent="1" vertex="1">
                    <mxGeometry x="-20" y="420" width="60" height="30" as="geometry"/>
                </mxCell>
                <mxCell id="4gBBqAU6jfUx5KSsTvPd-77" value="" style="endArrow=none;html=1;rounded=0;entryX=0.432;entryY=1.052;entryDx=0;entryDy=0;entryPerimeter=0;exitX=0.628;exitY=0.02;exitDx=0;exitDy=0;exitPerimeter=0;" parent="1" source="4gBBqAU6jfUx5KSsTvPd-70" target="4gBBqAU6jfUx5KSsTvPd-75" edge="1">
                    <mxGeometry width="50" height="50" relative="1" as="geometry">
                        <mxPoint x="190" y="410" as="sourcePoint"/>
                        <mxPoint x="240" y="360" as="targetPoint"/>
                    </mxGeometry>
                </mxCell>
                <mxCell id="4gBBqAU6jfUx5KSsTvPd-78" value="" style="ellipse;whiteSpace=wrap;html=1;" parent="1" vertex="1">
                    <mxGeometry x="-260" y="470" width="100" height="50" as="geometry"/>
                </mxCell>
                <mxCell id="4gBBqAU6jfUx5KSsTvPd-79" value="Details" style="text;strokeColor=none;align=center;fillColor=none;html=1;verticalAlign=middle;whiteSpace=wrap;rounded=0;" parent="1" vertex="1">
                    <mxGeometry x="-240" y="480" width="60" height="30" as="geometry"/>
                </mxCell>
                <mxCell id="4gBBqAU6jfUx5KSsTvPd-80" value="" style="endArrow=none;html=1;rounded=0;exitX=0.976;exitY=0.684;exitDx=0;exitDy=0;exitPerimeter=0;entryX=0;entryY=0.5;entryDx=0;entryDy=0;" parent="1" source="4gBBqAU6jfUx5KSsTvPd-78" target="4gBBqAU6jfUx5KSsTvPd-70" edge="1">
                    <mxGeometry width="50" height="50" relative="1" as="geometry">
                        <mxPoint x="190" y="510" as="sourcePoint"/>
                        <mxPoint x="240" y="460" as="targetPoint"/>
                    </mxGeometry>
                </mxCell>
                <mxCell id="4gBBqAU6jfUx5KSsTvPd-81" value="Nme" style="text;strokeColor=none;align=center;fillColor=none;html=1;verticalAlign=middle;whiteSpace=wrap;rounded=0;" parent="1" vertex="1">
                    <mxGeometry x="-100" y="800" width="60" height="30" as="geometry"/>
                </mxCell>
                <mxCell id="4gBBqAU6jfUx5KSsTvPd-82" value="Category" style="rounded=0;whiteSpace=wrap;html=1;" parent="1" vertex="1">
                    <mxGeometry x="-125" y="790" width="130" height="50" as="geometry"/>
                </mxCell>
                <mxCell id="4gBBqAU6jfUx5KSsTvPd-83" value="" style="rhombus;whiteSpace=wrap;html=1;" parent="1" vertex="1">
                    <mxGeometry x="-90" y="630" width="70" height="60" as="geometry"/>
                </mxCell>
                <mxCell id="4gBBqAU6jfUx5KSsTvPd-84" value="" style="endArrow=none;html=1;rounded=0;entryX=0.5;entryY=1;entryDx=0;entryDy=0;exitX=0.5;exitY=0;exitDx=0;exitDy=0;" parent="1" source="4gBBqAU6jfUx5KSsTvPd-83" target="4gBBqAU6jfUx5KSsTvPd-70" edge="1">
                    <mxGeometry width="50" height="50" relative="1" as="geometry">
                        <mxPoint x="190" y="710" as="sourcePoint"/>
                        <mxPoint x="240" y="660" as="targetPoint"/>
                    </mxGeometry>
                </mxCell>
                <mxCell id="4gBBqAU6jfUx5KSsTvPd-85" value="" style="endArrow=none;html=1;rounded=0;entryX=0.5;entryY=1;entryDx=0;entryDy=0;" parent="1" target="4gBBqAU6jfUx5KSsTvPd-83" edge="1">
                    <mxGeometry width="50" height="50" relative="1" as="geometry">
                        <mxPoint x="-55" y="790" as="sourcePoint"/>
                        <mxPoint x="240" y="660" as="targetPoint"/>
                    </mxGeometry>
                </mxCell>
                <mxCell id="4gBBqAU6jfUx5KSsTvPd-86" value="Has" style="text;strokeColor=none;align=center;fillColor=none;html=1;verticalAlign=middle;whiteSpace=wrap;rounded=0;" parent="1" vertex="1">
                    <mxGeometry x="-85" y="645" width="60" height="30" as="geometry"/>
                </mxCell>
                <mxCell id="4gBBqAU6jfUx5KSsTvPd-87" value="" style="ellipse;whiteSpace=wrap;html=1;" parent="1" vertex="1">
                    <mxGeometry x="-225" y="860" width="100" height="50" as="geometry"/>
                </mxCell>
                <mxCell id="4gBBqAU6jfUx5KSsTvPd-88" value="Name" style="text;strokeColor=none;align=center;fillColor=none;html=1;verticalAlign=middle;whiteSpace=wrap;rounded=0;" parent="1" vertex="1">
                    <mxGeometry x="-205" y="870" width="60" height="30" as="geometry"/>
                </mxCell>
                <mxCell id="4gBBqAU6jfUx5KSsTvPd-89" value="" style="ellipse;whiteSpace=wrap;html=1;" parent="1" vertex="1">
                    <mxGeometry x="-70" y="870" width="100" height="50" as="geometry"/>
                </mxCell>
                <mxCell id="4gBBqAU6jfUx5KSsTvPd-90" value="&lt;u&gt;ID&lt;/u&gt;" style="text;strokeColor=none;align=center;fillColor=none;html=1;verticalAlign=middle;whiteSpace=wrap;rounded=0;" parent="1" vertex="1">
                    <mxGeometry x="-55" y="880" width="60" height="30" as="geometry"/>
                </mxCell>
                <mxCell id="4gBBqAU6jfUx5KSsTvPd-91" value="" style="endArrow=none;html=1;rounded=0;exitX=0.5;exitY=0;exitDx=0;exitDy=0;" parent="1" source="4gBBqAU6jfUx5KSsTvPd-89" target="4gBBqAU6jfUx5KSsTvPd-82" edge="1">
                    <mxGeometry width="50" height="50" relative="1" as="geometry">
                        <mxPoint x="190" y="710" as="sourcePoint"/>
                        <mxPoint x="240" y="660" as="targetPoint"/>
                    </mxGeometry>
                </mxCell>
                <mxCell id="4gBBqAU6jfUx5KSsTvPd-92" value="" style="endArrow=none;html=1;rounded=0;entryX=0;entryY=1;entryDx=0;entryDy=0;exitX=0.738;exitY=0.02;exitDx=0;exitDy=0;exitPerimeter=0;" parent="1" source="4gBBqAU6jfUx5KSsTvPd-87" target="4gBBqAU6jfUx5KSsTvPd-82" edge="1">
                    <mxGeometry width="50" height="50" relative="1" as="geometry">
                        <mxPoint x="190" y="910" as="sourcePoint"/>
                        <mxPoint x="240" y="860" as="targetPoint"/>
                    </mxGeometry>
                </mxCell>
                <mxCell id="4gBBqAU6jfUx5KSsTvPd-94" value="M" style="text;strokeColor=none;align=center;fillColor=none;html=1;verticalAlign=middle;whiteSpace=wrap;rounded=0;" parent="1" vertex="1">
                    <mxGeometry x="-60" y="550" width="30" height="30" as="geometry"/>
                </mxCell>
                <mxCell id="4gBBqAU6jfUx5KSsTvPd-95" value="1" style="text;strokeColor=none;align=center;fillColor=none;html=1;verticalAlign=middle;whiteSpace=wrap;rounded=0;" parent="1" vertex="1">
                    <mxGeometry x="-60" y="760" width="30" height="30" as="geometry"/>
                </mxCell>
                <mxCell id="4gBBqAU6jfUx5KSsTvPd-96" value="" style="ellipse;whiteSpace=wrap;html=1;" parent="1" vertex="1">
                    <mxGeometry x="-245" y="560" width="100" height="50" as="geometry"/>
                </mxCell>
                <mxCell id="4gBBqAU6jfUx5KSsTvPd-97" value="Image_Path" style="text;strokeColor=none;align=center;fillColor=none;html=1;verticalAlign=middle;whiteSpace=wrap;rounded=0;" parent="1" vertex="1">
                    <mxGeometry x="-220" y="570" width="60" height="30" as="geometry"/>
                </mxCell>
                <mxCell id="4gBBqAU6jfUx5KSsTvPd-98" value="" style="endArrow=none;html=1;rounded=0;exitX=1;exitY=0;exitDx=0;exitDy=0;entryX=0;entryY=1;entryDx=0;entryDy=0;" parent="1" source="4gBBqAU6jfUx5KSsTvPd-96" target="4gBBqAU6jfUx5KSsTvPd-70" edge="1">
                    <mxGeometry width="50" height="50" relative="1" as="geometry">
                        <mxPoint x="190" y="610" as="sourcePoint"/>
                        <mxPoint x="240" y="560" as="targetPoint"/>
                    </mxGeometry>
                </mxCell>
                <mxCell id="4gBBqAU6jfUx5KSsTvPd-99" value="" style="ellipse;whiteSpace=wrap;html=1;" parent="1" vertex="1">
                    <mxGeometry x="540" y="410" width="100" height="50" as="geometry"/>
                </mxCell>
                <mxCell id="4gBBqAU6jfUx5KSsTvPd-100" value="Jobe_Type" style="text;strokeColor=none;align=center;fillColor=none;html=1;verticalAlign=middle;whiteSpace=wrap;rounded=0;" parent="1" vertex="1">
                    <mxGeometry x="560" y="420" width="60" height="30" as="geometry"/>
                </mxCell>
                <mxCell id="4gBBqAU6jfUx5KSsTvPd-101" value="" style="endArrow=none;html=1;rounded=0;entryX=0.328;entryY=1.036;entryDx=0;entryDy=0;entryPerimeter=0;exitX=0.692;exitY=-0.076;exitDx=0;exitDy=0;exitPerimeter=0;" parent="1" source="4gBBqAU6jfUx5KSsTvPd-55" target="4gBBqAU6jfUx5KSsTvPd-99" edge="1">
                    <mxGeometry width="50" height="50" relative="1" as="geometry">
                        <mxPoint x="190" y="410" as="sourcePoint"/>
                        <mxPoint x="240" y="360" as="targetPoint"/>
                    </mxGeometry>
                </mxCell>
                <mxCell id="4gBBqAU6jfUx5KSsTvPd-108" value="" style="ellipse;whiteSpace=wrap;html=1;" parent="1" vertex="1">
                    <mxGeometry x="660" y="570" width="100" height="50" as="geometry"/>
                </mxCell>
                <mxCell id="4gBBqAU6jfUx5KSsTvPd-109" value="Joine_Date" style="text;strokeColor=none;align=center;fillColor=none;html=1;verticalAlign=middle;whiteSpace=wrap;rounded=0;" parent="1" vertex="1">
                    <mxGeometry x="680" y="580" width="60" height="30" as="geometry"/>
                </mxCell>
                <mxCell id="4gBBqAU6jfUx5KSsTvPd-112" value="" style="endArrow=none;html=1;rounded=0;entryX=0;entryY=0;entryDx=0;entryDy=0;exitX=0.92;exitY=1.076;exitDx=0;exitDy=0;exitPerimeter=0;" parent="1" source="4gBBqAU6jfUx5KSsTvPd-55" target="4gBBqAU6jfUx5KSsTvPd-108" edge="1">
                    <mxGeometry width="50" height="50" relative="1" as="geometry">
                        <mxPoint x="310" y="410" as="sourcePoint"/>
                        <mxPoint x="360" y="360" as="targetPoint"/>
                    </mxGeometry>
                </mxCell>
                <mxCell id="4gBBqAU6jfUx5KSsTvPd-114" value="" style="rounded=0;whiteSpace=wrap;html=1;" parent="1" vertex="1">
                    <mxGeometry x="530" y="790" width="130" height="50" as="geometry"/>
                </mxCell>
                <mxCell id="4gBBqAU6jfUx5KSsTvPd-115" value="Experience" style="text;strokeColor=none;align=center;fillColor=none;html=1;verticalAlign=middle;whiteSpace=wrap;rounded=0;" parent="1" vertex="1">
                    <mxGeometry x="565" y="800" width="60" height="30" as="geometry"/>
                </mxCell>
                <mxCell id="4gBBqAU6jfUx5KSsTvPd-116" value="Has" style="text;strokeColor=none;align=center;fillColor=none;html=1;verticalAlign=middle;whiteSpace=wrap;rounded=0;" parent="1" vertex="1">
                    <mxGeometry x="565" y="640" width="60" height="30" as="geometry"/>
                </mxCell>
                <mxCell id="4gBBqAU6jfUx5KSsTvPd-118" value="Add" style="rhombus;whiteSpace=wrap;html=1;" parent="1" vertex="1">
                    <mxGeometry x="560" y="630" width="70" height="60" as="geometry"/>
                </mxCell>
                <mxCell id="4gBBqAU6jfUx5KSsTvPd-119" value="" style="endArrow=none;html=1;rounded=0;entryX=0.5;entryY=1;entryDx=0;entryDy=0;exitX=0.5;exitY=0;exitDx=0;exitDy=0;" parent="1" source="4gBBqAU6jfUx5KSsTvPd-118" target="4gBBqAU6jfUx5KSsTvPd-55" edge="1">
                    <mxGeometry width="50" height="50" relative="1" as="geometry">
                        <mxPoint x="310" y="710" as="sourcePoint"/>
                        <mxPoint x="360" y="660" as="targetPoint"/>
                    </mxGeometry>
                </mxCell>
                <mxCell id="4gBBqAU6jfUx5KSsTvPd-120" value="" style="endArrow=none;html=1;rounded=0;entryX=0.5;entryY=1;entryDx=0;entryDy=0;exitX=0.5;exitY=0;exitDx=0;exitDy=0;" parent="1" source="4gBBqAU6jfUx5KSsTvPd-114" target="4gBBqAU6jfUx5KSsTvPd-118" edge="1">
                    <mxGeometry width="50" height="50" relative="1" as="geometry">
                        <mxPoint x="310" y="710" as="sourcePoint"/>
                        <mxPoint x="360" y="660" as="targetPoint"/>
                    </mxGeometry>
                </mxCell>
                <mxCell id="4gBBqAU6jfUx5KSsTvPd-121" value="" style="ellipse;whiteSpace=wrap;html=1;" parent="1" vertex="1">
                    <mxGeometry x="690" y="710" width="100" height="50" as="geometry"/>
                </mxCell>
                <mxCell id="4gBBqAU6jfUx5KSsTvPd-122" value="Experienc_Name" style="text;strokeColor=none;align=center;fillColor=none;html=1;verticalAlign=middle;whiteSpace=wrap;rounded=0;" parent="1" vertex="1">
                    <mxGeometry x="710" y="720" width="60" height="30" as="geometry"/>
                </mxCell>
                <mxCell id="4gBBqAU6jfUx5KSsTvPd-123" value="" style="endArrow=none;html=1;rounded=0;entryX=0.036;entryY=0.78;entryDx=0;entryDy=0;entryPerimeter=0;exitX=0.951;exitY=-0.02;exitDx=0;exitDy=0;exitPerimeter=0;" parent="1" source="4gBBqAU6jfUx5KSsTvPd-114" target="4gBBqAU6jfUx5KSsTvPd-121" edge="1">
                    <mxGeometry width="50" height="50" relative="1" as="geometry">
                        <mxPoint x="310" y="710" as="sourcePoint"/>
                        <mxPoint x="360" y="660" as="targetPoint"/>
                    </mxGeometry>
                </mxCell>
                <mxCell id="4gBBqAU6jfUx5KSsTvPd-124" value="" style="ellipse;whiteSpace=wrap;html=1;" parent="1" vertex="1">
                    <mxGeometry x="690" y="810" width="100" height="50" as="geometry"/>
                </mxCell>
                <mxCell id="4gBBqAU6jfUx5KSsTvPd-125" value="&lt;u&gt;ID&lt;/u&gt;" style="text;strokeColor=none;align=center;fillColor=none;html=1;verticalAlign=middle;whiteSpace=wrap;rounded=0;" parent="1" vertex="1">
                    <mxGeometry x="710" y="820" width="60" height="30" as="geometry"/>
                </mxCell>
                <mxCell id="4gBBqAU6jfUx5KSsTvPd-126" value="" style="endArrow=none;html=1;rounded=0;entryX=0.02;entryY=0.38;entryDx=0;entryDy=0;entryPerimeter=0;exitX=1;exitY=0.5;exitDx=0;exitDy=0;" parent="1" source="4gBBqAU6jfUx5KSsTvPd-114" target="4gBBqAU6jfUx5KSsTvPd-124" edge="1">
                    <mxGeometry width="50" height="50" relative="1" as="geometry">
                        <mxPoint x="310" y="710" as="sourcePoint"/>
                        <mxPoint x="360" y="660" as="targetPoint"/>
                    </mxGeometry>
                </mxCell>
                <mxCell id="4gBBqAU6jfUx5KSsTvPd-128" value="" style="ellipse;whiteSpace=wrap;html=1;" parent="1" vertex="1">
                    <mxGeometry x="580" y="870" width="100" height="50" as="geometry"/>
                </mxCell>
                <mxCell id="4gBBqAU6jfUx5KSsTvPd-129" value="Description" style="text;strokeColor=none;align=center;fillColor=none;html=1;verticalAlign=middle;whiteSpace=wrap;rounded=0;" parent="1" vertex="1">
                    <mxGeometry x="600" y="880" width="60" height="30" as="geometry"/>
                </mxCell>
                <mxCell id="4gBBqAU6jfUx5KSsTvPd-130" value="" style="endArrow=none;html=1;rounded=0;entryX=0.575;entryY=0.988;entryDx=0;entryDy=0;entryPerimeter=0;exitX=0.5;exitY=0;exitDx=0;exitDy=0;" parent="1" source="4gBBqAU6jfUx5KSsTvPd-128" target="4gBBqAU6jfUx5KSsTvPd-114" edge="1">
                    <mxGeometry width="50" height="50" relative="1" as="geometry">
                        <mxPoint x="310" y="710" as="sourcePoint"/>
                        <mxPoint x="360" y="660" as="targetPoint"/>
                    </mxGeometry>
                </mxCell>
                <mxCell id="4gBBqAU6jfUx5KSsTvPd-131" value="" style="ellipse;whiteSpace=wrap;html=1;" parent="1" vertex="1">
                    <mxGeometry x="455" y="890" width="100" height="50" as="geometry"/>
                </mxCell>
                <mxCell id="4gBBqAU6jfUx5KSsTvPd-132" value="Image" style="text;strokeColor=none;align=center;fillColor=none;html=1;verticalAlign=middle;whiteSpace=wrap;rounded=0;" parent="1" vertex="1">
                    <mxGeometry x="475" y="900" width="60" height="30" as="geometry"/>
                </mxCell>
                <mxCell id="4gBBqAU6jfUx5KSsTvPd-135" value="" style="ellipse;whiteSpace=wrap;html=1;" parent="1" vertex="1">
                    <mxGeometry x="370" y="950" width="100" height="50" as="geometry"/>
                </mxCell>
                <mxCell id="4gBBqAU6jfUx5KSsTvPd-136" value="Image_01" style="text;strokeColor=none;align=center;fillColor=none;html=1;verticalAlign=middle;whiteSpace=wrap;rounded=0;" parent="1" vertex="1">
                    <mxGeometry x="395" y="960" width="60" height="30" as="geometry"/>
                </mxCell>
                <mxCell id="4gBBqAU6jfUx5KSsTvPd-137" value="" style="ellipse;whiteSpace=wrap;html=1;" parent="1" vertex="1">
                    <mxGeometry x="565" y="940" width="100" height="50" as="geometry"/>
                </mxCell>
                <mxCell id="4gBBqAU6jfUx5KSsTvPd-138" value="Image_02" style="text;strokeColor=none;align=center;fillColor=none;html=1;verticalAlign=middle;whiteSpace=wrap;rounded=0;" parent="1" vertex="1">
                    <mxGeometry x="585" y="950" width="60" height="30" as="geometry"/>
                </mxCell>
                <mxCell id="4gBBqAU6jfUx5KSsTvPd-139" value="" style="endArrow=none;html=1;rounded=0;entryX=0;entryY=1;entryDx=0;entryDy=0;exitX=0.61;exitY=-0.028;exitDx=0;exitDy=0;exitPerimeter=0;" parent="1" source="4gBBqAU6jfUx5KSsTvPd-135" target="4gBBqAU6jfUx5KSsTvPd-131" edge="1">
                    <mxGeometry width="50" height="50" relative="1" as="geometry">
                        <mxPoint x="360" y="910" as="sourcePoint"/>
                        <mxPoint x="410" y="860" as="targetPoint"/>
                    </mxGeometry>
                </mxCell>
                <mxCell id="4gBBqAU6jfUx5KSsTvPd-140" value="" style="endArrow=none;html=1;rounded=0;entryX=1;entryY=1;entryDx=0;entryDy=0;exitX=0.258;exitY=-0.028;exitDx=0;exitDy=0;exitPerimeter=0;" parent="1" source="4gBBqAU6jfUx5KSsTvPd-137" target="4gBBqAU6jfUx5KSsTvPd-131" edge="1">
                    <mxGeometry width="50" height="50" relative="1" as="geometry">
                        <mxPoint x="360" y="910" as="sourcePoint"/>
                        <mxPoint x="410" y="860" as="targetPoint"/>
                    </mxGeometry>
                </mxCell>
                <mxCell id="4gBBqAU6jfUx5KSsTvPd-141" value="" style="endArrow=none;html=1;rounded=0;entryX=0.188;entryY=1.052;entryDx=0;entryDy=0;entryPerimeter=0;exitX=0.5;exitY=0;exitDx=0;exitDy=0;" parent="1" source="4gBBqAU6jfUx5KSsTvPd-131" target="4gBBqAU6jfUx5KSsTvPd-114" edge="1">
                    <mxGeometry width="50" height="50" relative="1" as="geometry">
                        <mxPoint x="360" y="910" as="sourcePoint"/>
                        <mxPoint x="410" y="860" as="targetPoint"/>
                    </mxGeometry>
                </mxCell>
                <mxCell id="4gBBqAU6jfUx5KSsTvPd-142" value="" style="rounded=0;whiteSpace=wrap;html=1;" parent="1" vertex="1">
                    <mxGeometry x="270" y="790" width="130" height="50" as="geometry"/>
                </mxCell>
                <mxCell id="4gBBqAU6jfUx5KSsTvPd-143" value="Education" style="text;strokeColor=none;align=center;fillColor=none;html=1;verticalAlign=middle;whiteSpace=wrap;rounded=0;" parent="1" vertex="1">
                    <mxGeometry x="300" y="800" width="60" height="30" as="geometry"/>
                </mxCell>
                <mxCell id="4gBBqAU6jfUx5KSsTvPd-145" value="Add" style="rhombus;whiteSpace=wrap;html=1;rotation=30;" parent="1" vertex="1">
                    <mxGeometry x="410" y="625" width="70" height="60" as="geometry"/>
                </mxCell>
                <mxCell id="4gBBqAU6jfUx5KSsTvPd-146" value="" style="endArrow=none;html=1;rounded=0;entryX=0.5;entryY=1;entryDx=0;entryDy=0;exitX=0.678;exitY=-0.033;exitDx=0;exitDy=0;exitPerimeter=0;" parent="1" source="4gBBqAU6jfUx5KSsTvPd-142" target="4gBBqAU6jfUx5KSsTvPd-145" edge="1">
                    <mxGeometry width="50" height="50" relative="1" as="geometry">
                        <mxPoint x="370" y="770" as="sourcePoint"/>
                        <mxPoint x="420" y="720" as="targetPoint"/>
                    </mxGeometry>
                </mxCell>
                <mxCell id="4gBBqAU6jfUx5KSsTvPd-147" value="" style="endArrow=none;html=1;rounded=0;entryX=0;entryY=0.5;entryDx=0;entryDy=0;exitX=0.5;exitY=0;exitDx=0;exitDy=0;" parent="1" source="4gBBqAU6jfUx5KSsTvPd-145" target="4gBBqAU6jfUx5KSsTvPd-55" edge="1">
                    <mxGeometry width="50" height="50" relative="1" as="geometry">
                        <mxPoint x="370" y="770" as="sourcePoint"/>
                        <mxPoint x="420" y="720" as="targetPoint"/>
                    </mxGeometry>
                </mxCell>
                <mxCell id="4gBBqAU6jfUx5KSsTvPd-148" value="" style="ellipse;whiteSpace=wrap;html=1;" parent="1" vertex="1">
                    <mxGeometry x="280" y="900" width="100" height="50" as="geometry"/>
                </mxCell>
                <mxCell id="4gBBqAU6jfUx5KSsTvPd-149" value="Type" style="text;strokeColor=none;align=center;fillColor=none;html=1;verticalAlign=middle;whiteSpace=wrap;rounded=0;" parent="1" vertex="1">
                    <mxGeometry x="295" y="910" width="60" height="30" as="geometry"/>
                </mxCell>
                <mxCell id="4gBBqAU6jfUx5KSsTvPd-150" value="" style="endArrow=none;html=1;rounded=0;exitX=0.5;exitY=0;exitDx=0;exitDy=0;entryX=0.562;entryY=1.033;entryDx=0;entryDy=0;entryPerimeter=0;" parent="1" source="4gBBqAU6jfUx5KSsTvPd-148" target="4gBBqAU6jfUx5KSsTvPd-142" edge="1">
                    <mxGeometry width="50" height="50" relative="1" as="geometry">
                        <mxPoint x="370" y="880" as="sourcePoint"/>
                        <mxPoint x="355" y="844" as="targetPoint"/>
                    </mxGeometry>
                </mxCell>
                <mxCell id="4gBBqAU6jfUx5KSsTvPd-151" value="" style="ellipse;whiteSpace=wrap;html=1;" parent="1" vertex="1">
                    <mxGeometry x="165" y="900" width="100" height="50" as="geometry"/>
                </mxCell>
                <mxCell id="4gBBqAU6jfUx5KSsTvPd-153" value="Description" style="text;strokeColor=none;align=center;fillColor=none;html=1;verticalAlign=middle;whiteSpace=wrap;rounded=0;" parent="1" vertex="1">
                    <mxGeometry x="185" y="910" width="60" height="30" as="geometry"/>
                </mxCell>
                <mxCell id="4gBBqAU6jfUx5KSsTvPd-154" value="" style="endArrow=none;html=1;rounded=0;entryX=0.179;entryY=0.998;entryDx=0;entryDy=0;entryPerimeter=0;exitX=0.5;exitY=0;exitDx=0;exitDy=0;" parent="1" source="4gBBqAU6jfUx5KSsTvPd-151" target="4gBBqAU6jfUx5KSsTvPd-142" edge="1">
                    <mxGeometry width="50" height="50" relative="1" as="geometry">
                        <mxPoint x="370" y="880" as="sourcePoint"/>
                        <mxPoint x="420" y="830" as="targetPoint"/>
                    </mxGeometry>
                </mxCell>
                <mxCell id="4gBBqAU6jfUx5KSsTvPd-155" value="" style="ellipse;whiteSpace=wrap;html=1;" parent="1" vertex="1">
                    <mxGeometry x="370" y="860" width="100" height="50" as="geometry"/>
                </mxCell>
                <mxCell id="4gBBqAU6jfUx5KSsTvPd-156" value="&lt;u&gt;ID&lt;/u&gt;" style="text;strokeColor=none;align=center;fillColor=none;html=1;verticalAlign=middle;whiteSpace=wrap;rounded=0;" parent="1" vertex="1">
                    <mxGeometry x="390" y="870" width="60" height="30" as="geometry"/>
                </mxCell>
                <mxCell id="4gBBqAU6jfUx5KSsTvPd-159" value="" style="endArrow=none;html=1;rounded=0;entryX=0.31;entryY=0.007;entryDx=0;entryDy=0;entryPerimeter=0;" parent="1" target="4gBBqAU6jfUx5KSsTvPd-155" edge="1">
                    <mxGeometry width="50" height="50" relative="1" as="geometry">
                        <mxPoint x="391" y="840" as="sourcePoint"/>
                        <mxPoint x="420" y="830" as="targetPoint"/>
                    </mxGeometry>
                </mxCell>
                <mxCell id="4gBBqAU6jfUx5KSsTvPd-161" value="1" style="text;html=1;strokeColor=none;fillColor=none;align=center;verticalAlign=middle;whiteSpace=wrap;rounded=0;" parent="1" vertex="1">
                    <mxGeometry x="495" y="550" width="50" height="30" as="geometry"/>
                </mxCell>
                <mxCell id="4gBBqAU6jfUx5KSsTvPd-162" value="M" style="text;html=1;strokeColor=none;fillColor=none;align=center;verticalAlign=middle;whiteSpace=wrap;rounded=0;" parent="1" vertex="1">
                    <mxGeometry x="370" y="760" width="40" height="25" as="geometry"/>
                </mxCell>
                <mxCell id="4gBBqAU6jfUx5KSsTvPd-163" value="1" style="text;html=1;strokeColor=none;fillColor=none;align=center;verticalAlign=middle;whiteSpace=wrap;rounded=0;" parent="1" vertex="1">
                    <mxGeometry x="590" y="550" width="50" height="30" as="geometry"/>
                </mxCell>
                <mxCell id="4gBBqAU6jfUx5KSsTvPd-164" value="M" style="text;html=1;strokeColor=none;fillColor=none;align=center;verticalAlign=middle;whiteSpace=wrap;rounded=0;" parent="1" vertex="1">
                    <mxGeometry x="590" y="760" width="50" height="30" as="geometry"/>
                </mxCell>
                <mxCell id="4gBBqAU6jfUx5KSsTvPd-173" value="" style="rhombus;whiteSpace=wrap;html=1;rotation=30;" parent="1" vertex="1">
                    <mxGeometry x="145" y="715" width="70" height="60" as="geometry"/>
                </mxCell>
                <mxCell id="4gBBqAU6jfUx5KSsTvPd-174" value="Post" style="text;strokeColor=none;align=center;fillColor=none;html=1;verticalAlign=middle;whiteSpace=wrap;rounded=0;" parent="1" vertex="1">
                    <mxGeometry x="150" y="730" width="60" height="30" as="geometry"/>
                </mxCell>
                <mxCell id="4gBBqAU6jfUx5KSsTvPd-175" value="" style="rounded=0;whiteSpace=wrap;html=1;" parent="1" vertex="1">
                    <mxGeometry x="20" y="980" width="130" height="50" as="geometry"/>
                </mxCell>
                <mxCell id="4gBBqAU6jfUx5KSsTvPd-176" value="" style="endArrow=none;html=1;rounded=0;entryX=0.25;entryY=1;entryDx=0;entryDy=0;exitX=0.5;exitY=0;exitDx=0;exitDy=0;" parent="1" source="4gBBqAU6jfUx5KSsTvPd-173" target="4gBBqAU6jfUx5KSsTvPd-54" edge="1">
                    <mxGeometry width="50" height="50" relative="1" as="geometry">
                        <mxPoint x="260" y="770" as="sourcePoint"/>
                        <mxPoint x="310" y="720" as="targetPoint"/>
                    </mxGeometry>
                </mxCell>
                <mxCell id="4gBBqAU6jfUx5KSsTvPd-177" value="" style="endArrow=none;html=1;rounded=0;entryX=0.5;entryY=1;entryDx=0;entryDy=0;exitX=0.369;exitY=-0.076;exitDx=0;exitDy=0;exitPerimeter=0;" parent="1" source="4gBBqAU6jfUx5KSsTvPd-175" target="4gBBqAU6jfUx5KSsTvPd-173" edge="1">
                    <mxGeometry width="50" height="50" relative="1" as="geometry">
                        <mxPoint x="260" y="770" as="sourcePoint"/>
                        <mxPoint x="310" y="720" as="targetPoint"/>
                    </mxGeometry>
                </mxCell>
                <mxCell id="4gBBqAU6jfUx5KSsTvPd-178" value="Project" style="text;strokeColor=none;align=center;fillColor=none;html=1;verticalAlign=middle;whiteSpace=wrap;rounded=0;" parent="1" vertex="1">
                    <mxGeometry x="50" y="990" width="60" height="30" as="geometry"/>
                </mxCell>
                <mxCell id="4gBBqAU6jfUx5KSsTvPd-179" value="" style="ellipse;whiteSpace=wrap;html=1;" parent="1" vertex="1">
                    <mxGeometry x="130" y="1090" width="100" height="50" as="geometry"/>
                </mxCell>
                <mxCell id="4gBBqAU6jfUx5KSsTvPd-180" value="&lt;u&gt;Project_ID&lt;/u&gt;" style="text;strokeColor=none;align=center;fillColor=none;html=1;verticalAlign=middle;whiteSpace=wrap;rounded=0;" parent="1" vertex="1">
                    <mxGeometry x="155" y="1100" width="60" height="30" as="geometry"/>
                </mxCell>
                <mxCell id="4gBBqAU6jfUx5KSsTvPd-181" value="" style="endArrow=none;html=1;rounded=0;entryX=0.75;entryY=1;entryDx=0;entryDy=0;exitX=0;exitY=0;exitDx=0;exitDy=0;" parent="1" source="4gBBqAU6jfUx5KSsTvPd-179" target="4gBBqAU6jfUx5KSsTvPd-175" edge="1">
                    <mxGeometry width="50" height="50" relative="1" as="geometry">
                        <mxPoint x="260" y="990" as="sourcePoint"/>
                        <mxPoint x="310" y="940" as="targetPoint"/>
                    </mxGeometry>
                </mxCell>
                <mxCell id="4gBBqAU6jfUx5KSsTvPd-183" value="Project_Name" style="ellipse;whiteSpace=wrap;html=1;" parent="1" vertex="1">
                    <mxGeometry x="10" y="1110" width="100" height="50" as="geometry"/>
                </mxCell>
                <mxCell id="4gBBqAU6jfUx5KSsTvPd-184" value="" style="endArrow=none;html=1;rounded=0;entryX=0.385;entryY=1;entryDx=0;entryDy=0;entryPerimeter=0;exitX=0.5;exitY=0;exitDx=0;exitDy=0;" parent="1" source="4gBBqAU6jfUx5KSsTvPd-183" target="4gBBqAU6jfUx5KSsTvPd-175" edge="1">
                    <mxGeometry width="50" height="50" relative="1" as="geometry">
                        <mxPoint x="260" y="990" as="sourcePoint"/>
                        <mxPoint x="310" y="940" as="targetPoint"/>
                    </mxGeometry>
                </mxCell>
                <mxCell id="4gBBqAU6jfUx5KSsTvPd-185" value="Project_Description" style="ellipse;whiteSpace=wrap;html=1;" parent="1" vertex="1">
                    <mxGeometry x="-105" y="1090" width="105" height="50" as="geometry"/>
                </mxCell>
                <mxCell id="4gBBqAU6jfUx5KSsTvPd-186" value="" style="endArrow=none;html=1;rounded=0;exitX=0.652;exitY=0.011;exitDx=0;exitDy=0;entryX=0.105;entryY=1.002;entryDx=0;entryDy=0;entryPerimeter=0;exitPerimeter=0;" parent="1" source="4gBBqAU6jfUx5KSsTvPd-185" target="4gBBqAU6jfUx5KSsTvPd-175" edge="1">
                    <mxGeometry width="50" height="50" relative="1" as="geometry">
                        <mxPoint x="260" y="990" as="sourcePoint"/>
                        <mxPoint x="310" y="940" as="targetPoint"/>
                    </mxGeometry>
                </mxCell>
                <mxCell id="4gBBqAU6jfUx5KSsTvPd-187" value="Budget" style="ellipse;whiteSpace=wrap;html=1;" parent="1" vertex="1">
                    <mxGeometry x="-145" y="1020" width="105" height="50" as="geometry"/>
                </mxCell>
                <mxCell id="4gBBqAU6jfUx5KSsTvPd-188" value="" style="endArrow=none;html=1;rounded=0;exitX=1;exitY=0;exitDx=0;exitDy=0;entryX=0;entryY=0.5;entryDx=0;entryDy=0;" parent="1" source="4gBBqAU6jfUx5KSsTvPd-187" target="4gBBqAU6jfUx5KSsTvPd-175" edge="1">
                    <mxGeometry width="50" height="50" relative="1" as="geometry">
                        <mxPoint x="260" y="990" as="sourcePoint"/>
                        <mxPoint x="310" y="940" as="targetPoint"/>
                    </mxGeometry>
                </mxCell>
                <mxCell id="4gBBqAU6jfUx5KSsTvPd-189" value="" style="ellipse;whiteSpace=wrap;html=1;" parent="1" vertex="1">
                    <mxGeometry x="175" y="1040" width="100" height="50" as="geometry"/>
                </mxCell>
                <mxCell id="4gBBqAU6jfUx5KSsTvPd-190" value="Skils" style="text;strokeColor=none;align=center;fillColor=none;html=1;verticalAlign=middle;whiteSpace=wrap;rounded=0;" parent="1" vertex="1">
                    <mxGeometry x="195" y="1050" width="60" height="30" as="geometry"/>
                </mxCell>
                <mxCell id="4gBBqAU6jfUx5KSsTvPd-191" value="" style="endArrow=none;html=1;rounded=0;exitX=1;exitY=1;exitDx=0;exitDy=0;entryX=0;entryY=0.5;entryDx=0;entryDy=0;" parent="1" source="4gBBqAU6jfUx5KSsTvPd-175" target="4gBBqAU6jfUx5KSsTvPd-189" edge="1">
                    <mxGeometry width="50" height="50" relative="1" as="geometry">
                        <mxPoint x="260" y="990" as="sourcePoint"/>
                        <mxPoint x="310" y="940" as="targetPoint"/>
                    </mxGeometry>
                </mxCell>
                <mxCell id="VpM2AEZKnqVyb4cebk04-1" value="" style="rounded=0;whiteSpace=wrap;html=1;" parent="1" vertex="1">
                    <mxGeometry x="1180" y="500" width="130" height="50" as="geometry"/>
                </mxCell>
                <mxCell id="VpM2AEZKnqVyb4cebk04-2" value="Place" style="rhombus;whiteSpace=wrap;html=1;" parent="1" vertex="1">
                    <mxGeometry x="880" y="495" width="70" height="60" as="geometry"/>
                </mxCell>
                <mxCell id="VpM2AEZKnqVyb4cebk04-3" value="" style="endArrow=none;html=1;rounded=0;entryX=0;entryY=0.5;entryDx=0;entryDy=0;exitX=1;exitY=0.5;exitDx=0;exitDy=0;" parent="1" source="4gBBqAU6jfUx5KSsTvPd-55" target="VpM2AEZKnqVyb4cebk04-2" edge="1">
                    <mxGeometry width="50" height="50" relative="1" as="geometry">
                        <mxPoint x="750" y="710" as="sourcePoint"/>
                        <mxPoint x="800" y="660" as="targetPoint"/>
                    </mxGeometry>
                </mxCell>
                <mxCell id="VpM2AEZKnqVyb4cebk04-4" value="" style="endArrow=none;html=1;rounded=0;exitX=1;exitY=0.5;exitDx=0;exitDy=0;" parent="1" source="VpM2AEZKnqVyb4cebk04-2" target="VpM2AEZKnqVyb4cebk04-1" edge="1">
                    <mxGeometry width="50" height="50" relative="1" as="geometry">
                        <mxPoint x="960" y="524.41" as="sourcePoint"/>
                        <mxPoint x="1180" y="524.41" as="targetPoint"/>
                    </mxGeometry>
                </mxCell>
                <mxCell id="VpM2AEZKnqVyb4cebk04-5" value="Bid" style="text;strokeColor=none;align=center;fillColor=none;html=1;verticalAlign=middle;whiteSpace=wrap;rounded=0;" parent="1" vertex="1">
                    <mxGeometry x="1215" y="510" width="60" height="30" as="geometry"/>
                </mxCell>
                <mxCell id="VpM2AEZKnqVyb4cebk04-6" value="" style="ellipse;whiteSpace=wrap;html=1;" parent="1" vertex="1">
                    <mxGeometry x="1150" y="400" width="100" height="50" as="geometry"/>
                </mxCell>
                <mxCell id="VpM2AEZKnqVyb4cebk04-7" value="&lt;i&gt;&lt;u&gt;Bid_ID&lt;/u&gt;&lt;/i&gt;" style="text;strokeColor=none;align=center;fillColor=none;html=1;verticalAlign=middle;whiteSpace=wrap;rounded=0;" parent="1" vertex="1">
                    <mxGeometry x="1170" y="410" width="60" height="30" as="geometry"/>
                </mxCell>
                <mxCell id="VpM2AEZKnqVyb4cebk04-8" value="" style="endArrow=none;html=1;rounded=0;entryX=0.5;entryY=1;entryDx=0;entryDy=0;exitX=0.41;exitY=-0.08;exitDx=0;exitDy=0;exitPerimeter=0;" parent="1" source="VpM2AEZKnqVyb4cebk04-1" target="VpM2AEZKnqVyb4cebk04-6" edge="1">
                    <mxGeometry width="50" height="50" relative="1" as="geometry">
                        <mxPoint x="610" y="790" as="sourcePoint"/>
                        <mxPoint x="660" y="740" as="targetPoint"/>
                    </mxGeometry>
                </mxCell>
                <mxCell id="VpM2AEZKnqVyb4cebk04-9" value="" style="ellipse;whiteSpace=wrap;html=1;" parent="1" vertex="1">
                    <mxGeometry x="1290" y="400" width="100" height="50" as="geometry"/>
                </mxCell>
                <mxCell id="VpM2AEZKnqVyb4cebk04-10" value="Description" style="text;strokeColor=none;align=center;fillColor=none;html=1;verticalAlign=middle;whiteSpace=wrap;rounded=0;" parent="1" vertex="1">
                    <mxGeometry x="1310" y="410" width="60" height="30" as="geometry"/>
                </mxCell>
                <mxCell id="VpM2AEZKnqVyb4cebk04-11" value="" style="endArrow=none;html=1;rounded=0;entryX=0.5;entryY=1;entryDx=0;entryDy=0;exitX=0.75;exitY=0;exitDx=0;exitDy=0;" parent="1" source="VpM2AEZKnqVyb4cebk04-1" target="VpM2AEZKnqVyb4cebk04-9" edge="1">
                    <mxGeometry width="50" height="50" relative="1" as="geometry">
                        <mxPoint x="610" y="790" as="sourcePoint"/>
                        <mxPoint x="660" y="740" as="targetPoint"/>
                    </mxGeometry>
                </mxCell>
                <mxCell id="VpM2AEZKnqVyb4cebk04-12" value="1" style="text;html=1;strokeColor=none;fillColor=none;align=center;verticalAlign=middle;whiteSpace=wrap;rounded=0;" parent="1" vertex="1">
                    <mxGeometry x="670" y="495" width="50" height="30" as="geometry"/>
                </mxCell>
                <mxCell id="VpM2AEZKnqVyb4cebk04-13" value="M" style="text;html=1;strokeColor=none;fillColor=none;align=center;verticalAlign=middle;whiteSpace=wrap;rounded=0;" parent="1" vertex="1">
                    <mxGeometry x="1120" y="495" width="50" height="30" as="geometry"/>
                </mxCell>
                <mxCell id="VpM2AEZKnqVyb4cebk04-18" value="" style="ellipse;whiteSpace=wrap;html=1;" parent="1" vertex="1">
                    <mxGeometry x="1380" y="475" width="100" height="50" as="geometry"/>
                </mxCell>
                <mxCell id="VpM2AEZKnqVyb4cebk04-19" value="Price_Range" style="text;strokeColor=none;align=center;fillColor=none;html=1;verticalAlign=middle;whiteSpace=wrap;rounded=0;" parent="1" vertex="1">
                    <mxGeometry x="1400" y="485" width="60" height="30" as="geometry"/>
                </mxCell>
                <mxCell id="VpM2AEZKnqVyb4cebk04-20" value="" style="endArrow=none;html=1;rounded=0;entryX=0;entryY=1;entryDx=0;entryDy=0;exitX=1;exitY=0.25;exitDx=0;exitDy=0;" parent="1" source="VpM2AEZKnqVyb4cebk04-1" target="VpM2AEZKnqVyb4cebk04-18" edge="1">
                    <mxGeometry width="50" height="50" relative="1" as="geometry">
                        <mxPoint x="610" y="790" as="sourcePoint"/>
                        <mxPoint x="660" y="740" as="targetPoint"/>
                    </mxGeometry>
                </mxCell>
                <mxCell id="VpM2AEZKnqVyb4cebk04-22" value="" style="ellipse;whiteSpace=wrap;html=1;" parent="1" vertex="1">
                    <mxGeometry x="1030" y="425" width="100" height="50" as="geometry"/>
                </mxCell>
                <mxCell id="VpM2AEZKnqVyb4cebk04-23" value="Date&amp;amp;Time" style="text;strokeColor=none;align=center;fillColor=none;html=1;verticalAlign=middle;whiteSpace=wrap;rounded=0;" parent="1" vertex="1">
                    <mxGeometry x="1050" y="435" width="60" height="30" as="geometry"/>
                </mxCell>
                <mxCell id="VpM2AEZKnqVyb4cebk04-24" value="" style="endArrow=none;html=1;rounded=0;entryX=0.673;entryY=0.967;entryDx=0;entryDy=0;entryPerimeter=0;exitX=0.103;exitY=0;exitDx=0;exitDy=0;exitPerimeter=0;" parent="1" source="VpM2AEZKnqVyb4cebk04-1" target="VpM2AEZKnqVyb4cebk04-22" edge="1">
                    <mxGeometry width="50" height="50" relative="1" as="geometry">
                        <mxPoint x="610" y="790" as="sourcePoint"/>
                        <mxPoint x="660" y="740" as="targetPoint"/>
                    </mxGeometry>
                </mxCell>
                <mxCell id="VpM2AEZKnqVyb4cebk04-26" value="" style="rhombus;whiteSpace=wrap;html=1;" parent="1" vertex="1">
                    <mxGeometry x="1205" y="965" width="80" height="80" as="geometry"/>
                </mxCell>
                <mxCell id="VpM2AEZKnqVyb4cebk04-27" value="" style="endArrow=none;html=1;rounded=0;entryX=0.5;entryY=1;entryDx=0;entryDy=0;exitX=0.5;exitY=0;exitDx=0;exitDy=0;" parent="1" source="VpM2AEZKnqVyb4cebk04-26" target="VpM2AEZKnqVyb4cebk04-1" edge="1">
                    <mxGeometry width="50" height="50" relative="1" as="geometry">
                        <mxPoint x="530" y="850" as="sourcePoint"/>
                        <mxPoint x="580" y="800" as="targetPoint"/>
                    </mxGeometry>
                </mxCell>
                <mxCell id="VpM2AEZKnqVyb4cebk04-28" value="" style="endArrow=none;html=1;rounded=0;exitX=1;exitY=0.5;exitDx=0;exitDy=0;entryX=0;entryY=0.5;entryDx=0;entryDy=0;" parent="1" source="4gBBqAU6jfUx5KSsTvPd-175" target="VpM2AEZKnqVyb4cebk04-26" edge="1">
                    <mxGeometry width="50" height="50" relative="1" as="geometry">
                        <mxPoint x="530" y="1010" as="sourcePoint"/>
                        <mxPoint x="580" y="960" as="targetPoint"/>
                    </mxGeometry>
                </mxCell>
                <mxCell id="VpM2AEZKnqVyb4cebk04-31" value="1" style="text;html=1;strokeColor=none;fillColor=none;align=center;verticalAlign=middle;whiteSpace=wrap;rounded=0;" parent="1" vertex="1">
                    <mxGeometry x="155" y="975" width="40" height="25" as="geometry"/>
                </mxCell>
                <mxCell id="VpM2AEZKnqVyb4cebk04-32" value="M" style="text;html=1;strokeColor=none;fillColor=none;align=center;verticalAlign=middle;whiteSpace=wrap;rounded=0;" parent="1" vertex="1">
                    <mxGeometry x="1190" y="555" width="50" height="30" as="geometry"/>
                </mxCell>
                <mxCell id="VpM2AEZKnqVyb4cebk04-33" value="Has" style="text;strokeColor=none;align=center;fillColor=none;html=1;verticalAlign=middle;whiteSpace=wrap;rounded=0;" parent="1" vertex="1">
                    <mxGeometry x="1215" y="990" width="60" height="30" as="geometry"/>
                </mxCell>
                <mxCell id="VpM2AEZKnqVyb4cebk04-35" value="" style="rounded=0;whiteSpace=wrap;html=1;" parent="1" vertex="1">
                    <mxGeometry x="600" y="1250" width="130" height="50" as="geometry"/>
                </mxCell>
                <mxCell id="VpM2AEZKnqVyb4cebk04-36" value="Message" style="text;strokeColor=none;align=center;fillColor=none;html=1;verticalAlign=middle;whiteSpace=wrap;rounded=0;" parent="1" vertex="1">
                    <mxGeometry x="640" y="1260" width="60" height="30" as="geometry"/>
                </mxCell>
                <mxCell id="VpM2AEZKnqVyb4cebk04-37" value="Sender_ID" style="ellipse;whiteSpace=wrap;html=1;" parent="1" vertex="1">
                    <mxGeometry x="520" y="1160" width="100" height="50" as="geometry"/>
                </mxCell>
                <mxCell id="VpM2AEZKnqVyb4cebk04-38" value="Resiver_ID" style="ellipse;whiteSpace=wrap;html=1;" parent="1" vertex="1">
                    <mxGeometry x="650" y="1150" width="100" height="50" as="geometry"/>
                </mxCell>
                <mxCell id="VpM2AEZKnqVyb4cebk04-39" value="&lt;u&gt;Message_ID&lt;/u&gt;" style="ellipse;whiteSpace=wrap;html=1;" parent="1" vertex="1">
                    <mxGeometry x="465" y="1250" width="100" height="50" as="geometry"/>
                </mxCell>
                <mxCell id="VpM2AEZKnqVyb4cebk04-40" value="" style="endArrow=none;html=1;rounded=0;entryX=0;entryY=0.5;entryDx=0;entryDy=0;exitX=1;exitY=0.5;exitDx=0;exitDy=0;" parent="1" source="VpM2AEZKnqVyb4cebk04-39" target="VpM2AEZKnqVyb4cebk04-35" edge="1">
                    <mxGeometry width="50" height="50" relative="1" as="geometry">
                        <mxPoint x="500" y="1180" as="sourcePoint"/>
                        <mxPoint x="550" y="1130" as="targetPoint"/>
                    </mxGeometry>
                </mxCell>
                <mxCell id="VpM2AEZKnqVyb4cebk04-41" value="" style="endArrow=none;html=1;rounded=0;entryX=0;entryY=0;entryDx=0;entryDy=0;exitX=0.5;exitY=1;exitDx=0;exitDy=0;" parent="1" source="VpM2AEZKnqVyb4cebk04-37" target="VpM2AEZKnqVyb4cebk04-35" edge="1">
                    <mxGeometry width="50" height="50" relative="1" as="geometry">
                        <mxPoint x="500" y="1180" as="sourcePoint"/>
                        <mxPoint x="550" y="1130" as="targetPoint"/>
                    </mxGeometry>
                </mxCell>
                <mxCell id="VpM2AEZKnqVyb4cebk04-42" value="" style="endArrow=none;html=1;rounded=0;entryX=0.5;entryY=1;entryDx=0;entryDy=0;exitX=0.646;exitY=-0.067;exitDx=0;exitDy=0;exitPerimeter=0;" parent="1" source="VpM2AEZKnqVyb4cebk04-35" target="VpM2AEZKnqVyb4cebk04-38" edge="1">
                    <mxGeometry width="50" height="50" relative="1" as="geometry">
                        <mxPoint x="500" y="1180" as="sourcePoint"/>
                        <mxPoint x="550" y="1130" as="targetPoint"/>
                    </mxGeometry>
                </mxCell>
                <mxCell id="VpM2AEZKnqVyb4cebk04-43" value="Subject" style="ellipse;whiteSpace=wrap;html=1;" parent="1" vertex="1">
                    <mxGeometry x="770" y="1190" width="100" height="50" as="geometry"/>
                </mxCell>
                <mxCell id="VpM2AEZKnqVyb4cebk04-44" value="" style="endArrow=none;html=1;rounded=0;entryX=0;entryY=1;entryDx=0;entryDy=0;exitX=1;exitY=0.25;exitDx=0;exitDy=0;" parent="1" source="VpM2AEZKnqVyb4cebk04-35" target="VpM2AEZKnqVyb4cebk04-43" edge="1">
                    <mxGeometry width="50" height="50" relative="1" as="geometry">
                        <mxPoint x="694" y="1257" as="sourcePoint"/>
                        <mxPoint x="710" y="1210" as="targetPoint"/>
                    </mxGeometry>
                </mxCell>
                <mxCell id="VpM2AEZKnqVyb4cebk04-45" value="Body" style="ellipse;whiteSpace=wrap;html=1;" parent="1" vertex="1">
                    <mxGeometry x="760" y="1300" width="100" height="50" as="geometry"/>
                </mxCell>
                <mxCell id="VpM2AEZKnqVyb4cebk04-46" value="" style="endArrow=none;html=1;rounded=0;entryX=0;entryY=0.5;entryDx=0;entryDy=0;exitX=1;exitY=1;exitDx=0;exitDy=0;" parent="1" source="VpM2AEZKnqVyb4cebk04-35" target="VpM2AEZKnqVyb4cebk04-45" edge="1">
                    <mxGeometry width="50" height="50" relative="1" as="geometry">
                        <mxPoint x="740" y="1273" as="sourcePoint"/>
                        <mxPoint x="795" y="1243" as="targetPoint"/>
                    </mxGeometry>
                </mxCell>
                <mxCell id="VpM2AEZKnqVyb4cebk04-47" value="Date&amp;amp;Time" style="ellipse;whiteSpace=wrap;html=1;" parent="1" vertex="1">
                    <mxGeometry x="-135" y="940" width="105" height="50" as="geometry"/>
                </mxCell>
                <mxCell id="VpM2AEZKnqVyb4cebk04-48" value="" style="endArrow=none;html=1;rounded=0;exitX=0;exitY=0.25;exitDx=0;exitDy=0;entryX=1;entryY=1;entryDx=0;entryDy=0;" parent="1" source="4gBBqAU6jfUx5KSsTvPd-175" target="VpM2AEZKnqVyb4cebk04-47" edge="1">
                    <mxGeometry width="50" height="50" relative="1" as="geometry">
                        <mxPoint x="190" y="850" as="sourcePoint"/>
                        <mxPoint x="240" y="800" as="targetPoint"/>
                    </mxGeometry>
                </mxCell>
                <mxCell id="VpM2AEZKnqVyb4cebk04-49" value="" style="rounded=0;whiteSpace=wrap;html=1;" parent="1" vertex="1">
                    <mxGeometry x="1015" y="-10" width="130" height="50" as="geometry"/>
                </mxCell>
                <mxCell id="VpM2AEZKnqVyb4cebk04-52" value="Pay" style="rhombus;whiteSpace=wrap;html=1;rotation=35;" parent="1" vertex="1">
                    <mxGeometry x="800" y="230" width="70" height="60" as="geometry"/>
                </mxCell>
                <mxCell id="VpM2AEZKnqVyb4cebk04-53" value="" style="endArrow=none;html=1;rounded=0;exitX=0.856;exitY=-0.053;exitDx=0;exitDy=0;exitPerimeter=0;entryX=0.5;entryY=1;entryDx=0;entryDy=0;" parent="1" source="4gBBqAU6jfUx5KSsTvPd-55" target="VpM2AEZKnqVyb4cebk04-52" edge="1">
                    <mxGeometry width="50" height="50" relative="1" as="geometry">
                        <mxPoint x="740" y="350" as="sourcePoint"/>
                        <mxPoint x="790" y="300" as="targetPoint"/>
                    </mxGeometry>
                </mxCell>
                <mxCell id="VpM2AEZKnqVyb4cebk04-54" value="" style="endArrow=none;html=1;rounded=0;" parent="1" target="VpM2AEZKnqVyb4cebk04-49" edge="1">
                    <mxGeometry width="50" height="50" relative="1" as="geometry">
                        <mxPoint x="850" y="240" as="sourcePoint"/>
                        <mxPoint x="790" y="300" as="targetPoint"/>
                    </mxGeometry>
                </mxCell>
                <mxCell id="VpM2AEZKnqVyb4cebk04-55" value="" style="ellipse;whiteSpace=wrap;html=1;" parent="1" vertex="1">
                    <mxGeometry x="990" y="-160" width="100" height="50" as="geometry"/>
                </mxCell>
                <mxCell id="VpM2AEZKnqVyb4cebk04-56" value="&lt;u&gt;Payment_ID&lt;/u&gt;" style="text;strokeColor=none;align=center;fillColor=none;html=1;verticalAlign=middle;whiteSpace=wrap;rounded=0;" parent="1" vertex="1">
                    <mxGeometry x="1010" y="-150" width="60" height="30" as="geometry"/>
                </mxCell>
                <mxCell id="VpM2AEZKnqVyb4cebk04-57" value="" style="endArrow=none;html=1;rounded=0;entryX=0.5;entryY=1;entryDx=0;entryDy=0;exitX=0.25;exitY=0;exitDx=0;exitDy=0;" parent="1" source="VpM2AEZKnqVyb4cebk04-49" target="VpM2AEZKnqVyb4cebk04-55" edge="1">
                    <mxGeometry width="50" height="50" relative="1" as="geometry">
                        <mxPoint x="590" y="180" as="sourcePoint"/>
                        <mxPoint x="640" y="130" as="targetPoint"/>
                    </mxGeometry>
                </mxCell>
                <mxCell id="VpM2AEZKnqVyb4cebk04-58" value="Payment" style="text;strokeColor=none;align=center;fillColor=none;html=1;verticalAlign=middle;whiteSpace=wrap;rounded=0;" parent="1" vertex="1">
                    <mxGeometry x="1050" width="60" height="30" as="geometry"/>
                </mxCell>
                <mxCell id="VpM2AEZKnqVyb4cebk04-61" value="" style="ellipse;whiteSpace=wrap;html=1;" parent="1" vertex="1">
                    <mxGeometry x="1685" y="-110" width="100" height="50" as="geometry"/>
                </mxCell>
                <mxCell id="VpM2AEZKnqVyb4cebk04-63" value="&lt;u&gt;Subscription_ID&lt;/u&gt;" style="text;strokeColor=none;align=center;fillColor=none;html=1;verticalAlign=middle;whiteSpace=wrap;rounded=0;" parent="1" vertex="1">
                    <mxGeometry x="1710" y="-100" width="60" height="30" as="geometry"/>
                </mxCell>
                <mxCell id="VpM2AEZKnqVyb4cebk04-67" value="" style="ellipse;whiteSpace=wrap;html=1;" parent="1" vertex="1">
                    <mxGeometry x="880" y="-100" width="100" height="50" as="geometry"/>
                </mxCell>
                <mxCell id="VpM2AEZKnqVyb4cebk04-68" value="Price" style="text;strokeColor=none;align=center;fillColor=none;html=1;verticalAlign=middle;whiteSpace=wrap;rounded=0;" parent="1" vertex="1">
                    <mxGeometry x="900" y="-90" width="60" height="30" as="geometry"/>
                </mxCell>
                <mxCell id="VpM2AEZKnqVyb4cebk04-69" value="" style="endArrow=none;html=1;rounded=0;entryX=0.68;entryY=1.04;entryDx=0;entryDy=0;entryPerimeter=0;exitX=0;exitY=0;exitDx=0;exitDy=0;" parent="1" source="VpM2AEZKnqVyb4cebk04-49" target="VpM2AEZKnqVyb4cebk04-67" edge="1">
                    <mxGeometry width="50" height="50" relative="1" as="geometry">
                        <mxPoint x="590" y="10" as="sourcePoint"/>
                        <mxPoint x="640" y="-40" as="targetPoint"/>
                    </mxGeometry>
                </mxCell>
                <mxCell id="VpM2AEZKnqVyb4cebk04-70" value="" style="ellipse;whiteSpace=wrap;html=1;" parent="1" vertex="1">
                    <mxGeometry x="840" y="-30" width="100" height="50" as="geometry"/>
                </mxCell>
                <mxCell id="VpM2AEZKnqVyb4cebk04-74" value="Activation_Cod" style="text;strokeColor=none;align=center;fillColor=none;html=1;verticalAlign=middle;whiteSpace=wrap;rounded=0;" parent="1" vertex="1">
                    <mxGeometry x="860" y="-20" width="60" height="30" as="geometry"/>
                </mxCell>
                <mxCell id="VpM2AEZKnqVyb4cebk04-75" value="" style="endArrow=none;html=1;rounded=0;entryX=0;entryY=0.5;entryDx=0;entryDy=0;exitX=0.987;exitY=0.76;exitDx=0;exitDy=0;exitPerimeter=0;" parent="1" source="VpM2AEZKnqVyb4cebk04-70" target="VpM2AEZKnqVyb4cebk04-49" edge="1">
                    <mxGeometry width="50" height="50" relative="1" as="geometry">
                        <mxPoint x="590" y="180" as="sourcePoint"/>
                        <mxPoint x="640" y="130" as="targetPoint"/>
                    </mxGeometry>
                </mxCell>
                <mxCell id="VpM2AEZKnqVyb4cebk04-76" value="" style="endArrow=none;html=1;rounded=0;entryX=0;entryY=0.5;entryDx=0;entryDy=0;" parent="1" target="VpM2AEZKnqVyb4cebk04-79" edge="1">
                    <mxGeometry width="50" height="50" relative="1" as="geometry">
                        <mxPoint x="1150" y="10" as="sourcePoint"/>
                        <mxPoint x="990" y="130" as="targetPoint"/>
                    </mxGeometry>
                </mxCell>
                <mxCell id="VpM2AEZKnqVyb4cebk04-78" value="" style="rounded=0;whiteSpace=wrap;html=1;" parent="1" vertex="1">
                    <mxGeometry x="1690" y="-10" width="130" height="50" as="geometry"/>
                </mxCell>
                <mxCell id="VpM2AEZKnqVyb4cebk04-79" value="Has" style="rhombus;whiteSpace=wrap;html=1;" parent="1" vertex="1">
                    <mxGeometry x="1400" y="-20" width="70" height="60" as="geometry"/>
                </mxCell>
                <mxCell id="VpM2AEZKnqVyb4cebk04-80" value="Subscription" style="text;strokeColor=none;align=center;fillColor=none;html=1;verticalAlign=middle;whiteSpace=wrap;rounded=0;" parent="1" vertex="1">
                    <mxGeometry x="1725" width="60" height="30" as="geometry"/>
                </mxCell>
                <mxCell id="VpM2AEZKnqVyb4cebk04-81" value="" style="endArrow=none;html=1;rounded=0;exitX=1;exitY=0.5;exitDx=0;exitDy=0;" parent="1" source="VpM2AEZKnqVyb4cebk04-79" edge="1">
                    <mxGeometry width="50" height="50" relative="1" as="geometry">
                        <mxPoint x="940" y="180" as="sourcePoint"/>
                        <mxPoint x="1690" y="10" as="targetPoint"/>
                    </mxGeometry>
                </mxCell>
                <mxCell id="VpM2AEZKnqVyb4cebk04-85" value="" style="endArrow=none;html=1;rounded=0;entryX=0.5;entryY=1;entryDx=0;entryDy=0;exitX=0.5;exitY=0;exitDx=0;exitDy=0;" parent="1" source="VpM2AEZKnqVyb4cebk04-78" target="VpM2AEZKnqVyb4cebk04-61" edge="1">
                    <mxGeometry width="50" height="50" relative="1" as="geometry">
                        <mxPoint x="940" y="180" as="sourcePoint"/>
                        <mxPoint x="990" y="130" as="targetPoint"/>
                    </mxGeometry>
                </mxCell>
                <mxCell id="VpM2AEZKnqVyb4cebk04-88" value="" style="ellipse;whiteSpace=wrap;html=1;" parent="1" vertex="1">
                    <mxGeometry x="1850" y="-110" width="100" height="50" as="geometry"/>
                </mxCell>
                <mxCell id="VpM2AEZKnqVyb4cebk04-89" value="Name" style="text;strokeColor=none;align=center;fillColor=none;html=1;verticalAlign=middle;whiteSpace=wrap;rounded=0;" parent="1" vertex="1">
                    <mxGeometry x="1870" y="-100" width="60" height="30" as="geometry"/>
                </mxCell>
                <mxCell id="VpM2AEZKnqVyb4cebk04-90" value="" style="endArrow=none;html=1;rounded=0;exitX=0.75;exitY=0;exitDx=0;exitDy=0;" parent="1" source="VpM2AEZKnqVyb4cebk04-78" edge="1">
                    <mxGeometry width="50" height="50" relative="1" as="geometry">
                        <mxPoint x="1460" y="180" as="sourcePoint"/>
                        <mxPoint x="1880" y="-60" as="targetPoint"/>
                    </mxGeometry>
                </mxCell>
                <mxCell id="VpM2AEZKnqVyb4cebk04-91" value="" style="ellipse;whiteSpace=wrap;html=1;" parent="1" vertex="1">
                    <mxGeometry x="1900" y="-15" width="100" height="50" as="geometry"/>
                </mxCell>
                <mxCell id="VpM2AEZKnqVyb4cebk04-92" value="Description" style="text;strokeColor=none;align=center;fillColor=none;html=1;verticalAlign=middle;whiteSpace=wrap;rounded=0;" parent="1" vertex="1">
                    <mxGeometry x="1920" y="-5" width="60" height="30" as="geometry"/>
                </mxCell>
                <mxCell id="VpM2AEZKnqVyb4cebk04-93" value="" style="endArrow=none;html=1;rounded=0;exitX=1;exitY=0.5;exitDx=0;exitDy=0;entryX=0;entryY=0.5;entryDx=0;entryDy=0;" parent="1" source="VpM2AEZKnqVyb4cebk04-78" target="VpM2AEZKnqVyb4cebk04-91" edge="1">
                    <mxGeometry width="50" height="50" relative="1" as="geometry">
                        <mxPoint x="1460" y="180" as="sourcePoint"/>
                        <mxPoint x="1900" as="targetPoint"/>
                    </mxGeometry>
                </mxCell>
                <mxCell id="VpM2AEZKnqVyb4cebk04-94" value="" style="ellipse;whiteSpace=wrap;html=1;" parent="1" vertex="1">
                    <mxGeometry x="1850" y="60" width="100" height="50" as="geometry"/>
                </mxCell>
                <mxCell id="VpM2AEZKnqVyb4cebk04-95" value="Cost" style="text;strokeColor=none;align=center;fillColor=none;html=1;verticalAlign=middle;whiteSpace=wrap;rounded=0;" parent="1" vertex="1">
                    <mxGeometry x="1870" y="70" width="60" height="30" as="geometry"/>
                </mxCell>
                <mxCell id="VpM2AEZKnqVyb4cebk04-96" value="" style="endArrow=none;html=1;rounded=0;entryX=0;entryY=0;entryDx=0;entryDy=0;exitX=1;exitY=1;exitDx=0;exitDy=0;" parent="1" source="VpM2AEZKnqVyb4cebk04-78" target="VpM2AEZKnqVyb4cebk04-94" edge="1">
                    <mxGeometry width="50" height="50" relative="1" as="geometry">
                        <mxPoint x="1460" y="180" as="sourcePoint"/>
                        <mxPoint x="1510" y="130" as="targetPoint"/>
                    </mxGeometry>
                </mxCell>
                <mxCell id="VpM2AEZKnqVyb4cebk04-97" value="1" style="text;html=1;strokeColor=none;fillColor=none;align=center;verticalAlign=middle;whiteSpace=wrap;rounded=0;" parent="1" vertex="1">
                    <mxGeometry x="1145" y="-20" width="50" height="30" as="geometry"/>
                </mxCell>
                <mxCell id="VpM2AEZKnqVyb4cebk04-98" value="1" style="text;html=1;strokeColor=none;fillColor=none;align=center;verticalAlign=middle;whiteSpace=wrap;rounded=0;" parent="1" vertex="1">
                    <mxGeometry x="1640" y="-20" width="50" height="30" as="geometry"/>
                </mxCell>
                <mxCell id="VpM2AEZKnqVyb4cebk04-99" value="1" style="text;html=1;strokeColor=none;fillColor=none;align=center;verticalAlign=middle;whiteSpace=wrap;rounded=0;" parent="1" vertex="1">
                    <mxGeometry x="980" y="40" width="50" height="30" as="geometry"/>
                </mxCell>
                <mxCell id="VpM2AEZKnqVyb4cebk04-100" value="1" style="text;html=1;strokeColor=none;fillColor=none;align=center;verticalAlign=middle;whiteSpace=wrap;rounded=0;" parent="1" vertex="1">
                    <mxGeometry x="615" y="460" width="50" height="30" as="geometry"/>
                </mxCell>
                <mxCell id="VpM2AEZKnqVyb4cebk04-101" value="" style="ellipse;whiteSpace=wrap;html=1;" parent="1" vertex="1">
                    <mxGeometry x="1105" y="-130" width="100" height="50" as="geometry"/>
                </mxCell>
                <mxCell id="VpM2AEZKnqVyb4cebk04-103" value="Date&amp;amp;Time" style="text;strokeColor=none;align=center;fillColor=none;html=1;verticalAlign=middle;whiteSpace=wrap;rounded=0;" parent="1" vertex="1">
                    <mxGeometry x="1130" y="-120" width="60" height="30" as="geometry"/>
                </mxCell>
                <mxCell id="VpM2AEZKnqVyb4cebk04-104" value="" style="endArrow=none;html=1;rounded=0;entryX=0.5;entryY=1;entryDx=0;entryDy=0;exitX=0.5;exitY=0;exitDx=0;exitDy=0;" parent="1" source="VpM2AEZKnqVyb4cebk04-49" target="VpM2AEZKnqVyb4cebk04-101" edge="1">
                    <mxGeometry width="50" height="50" relative="1" as="geometry">
                        <mxPoint x="1320" y="180" as="sourcePoint"/>
                        <mxPoint x="1370" y="130" as="targetPoint"/>
                    </mxGeometry>
                </mxCell>
                <mxCell id="2" value="" style="ellipse;whiteSpace=wrap;html=1;" vertex="1" parent="1">
                    <mxGeometry x="400" y="495" width="100" height="50" as="geometry"/>
                </mxCell>
                <mxCell id="3" value="" style="endArrow=none;html=1;rounded=0;entryX=0;entryY=0.5;entryDx=0;entryDy=0;exitX=1;exitY=0.5;exitDx=0;exitDy=0;" edge="1" parent="1" source="2" target="4gBBqAU6jfUx5KSsTvPd-55">
                    <mxGeometry width="50" height="50" relative="1" as="geometry">
                        <mxPoint x="659.5999999999999" y="563.8000000000002" as="sourcePoint"/>
                        <mxPoint x="684.6446609406726" y="587.322330470336" as="targetPoint"/>
                    </mxGeometry>
                </mxCell>
                <mxCell id="4" value="Job_Catogory" style="text;strokeColor=none;align=center;fillColor=none;html=1;verticalAlign=middle;whiteSpace=wrap;rounded=0;" vertex="1" parent="1">
                    <mxGeometry x="415" y="505" width="60" height="30" as="geometry"/>
                </mxCell>
                <mxCell id="5" value="M" style="text;html=1;strokeColor=none;fillColor=none;align=center;verticalAlign=middle;whiteSpace=wrap;rounded=0;" vertex="1" parent="1">
                    <mxGeometry x="70" y="952.5" width="40" height="25" as="geometry"/>
                </mxCell>
                <mxCell id="6" value="1" style="text;html=1;strokeColor=none;fillColor=none;align=center;verticalAlign=middle;whiteSpace=wrap;rounded=0;" vertex="1" parent="1">
                    <mxGeometry x="250" y="545" width="50" height="30" as="geometry"/>
                </mxCell>
                <mxCell id="11" value="" style="rounded=0;whiteSpace=wrap;html=1;" vertex="1" parent="1">
                    <mxGeometry x="-570" y="85" width="135" height="60" as="geometry"/>
                </mxCell>
                <mxCell id="12" value="Address" style="text;strokeColor=none;align=center;fillColor=none;html=1;verticalAlign=middle;whiteSpace=wrap;rounded=0;" vertex="1" parent="1">
                    <mxGeometry x="-540" y="100" width="60" height="30" as="geometry"/>
                </mxCell>
                <mxCell id="13" value="" style="endArrow=none;html=1;exitX=1;exitY=0.5;exitDx=0;exitDy=0;entryX=0;entryY=0.25;entryDx=0;entryDy=0;" edge="1" parent="1" source="11" target="4gBBqAU6jfUx5KSsTvPd-1">
                    <mxGeometry width="50" height="50" relative="1" as="geometry">
                        <mxPoint x="150" y="240" as="sourcePoint"/>
                        <mxPoint x="200" y="190" as="targetPoint"/>
                    </mxGeometry>
                </mxCell>
                <mxCell id="15" value="" style="ellipse;whiteSpace=wrap;html=1;" vertex="1" parent="1">
                    <mxGeometry x="-720" y="-40" width="120" height="60" as="geometry"/>
                </mxCell>
                <mxCell id="16" value="&lt;span style=&quot;color: rgb(189, 193, 198); font-family: arial, sans-serif; font-size: 16px; text-align: left; background-color: rgb(32, 33, 36);&quot;&gt;Recipient's name&lt;/span&gt;" style="text;strokeColor=none;align=center;fillColor=none;html=1;verticalAlign=middle;whiteSpace=wrap;rounded=0;" vertex="1" parent="1">
                    <mxGeometry x="-690" y="-25" width="60" height="30" as="geometry"/>
                </mxCell>
                <mxCell id="17" value="" style="endArrow=none;html=1;exitX=0.67;exitY=0.973;exitDx=0;exitDy=0;exitPerimeter=0;entryX=0;entryY=0;entryDx=0;entryDy=0;" edge="1" parent="1" source="15" target="11">
                    <mxGeometry width="50" height="50" relative="1" as="geometry">
                        <mxPoint x="-90" y="240" as="sourcePoint"/>
                        <mxPoint x="-40" y="190" as="targetPoint"/>
                    </mxGeometry>
                </mxCell>
                <mxCell id="18" value="" style="ellipse;whiteSpace=wrap;html=1;" vertex="1" parent="1">
                    <mxGeometry x="-485" y="-50" width="120" height="60" as="geometry"/>
                </mxCell>
                <mxCell id="19" value="&lt;span style=&quot;color: rgb(189, 193, 198); font-family: arial, sans-serif; font-size: 16px; text-align: left; background-color: rgb(32, 33, 36);&quot;&gt;Business's name&amp;nbsp;&lt;/span&gt;" style="text;strokeColor=none;align=center;fillColor=none;html=1;verticalAlign=middle;whiteSpace=wrap;rounded=0;" vertex="1" parent="1">
                    <mxGeometry x="-455" y="-30" width="60" height="30" as="geometry"/>
                </mxCell>
                <mxCell id="20" value="" style="endArrow=none;html=1;entryX=0.5;entryY=1;entryDx=0;entryDy=0;exitX=0.634;exitY=-0.017;exitDx=0;exitDy=0;exitPerimeter=0;" edge="1" parent="1" source="11" target="18">
                    <mxGeometry width="50" height="50" relative="1" as="geometry">
                        <mxPoint x="-90" y="240" as="sourcePoint"/>
                        <mxPoint x="-40" y="190" as="targetPoint"/>
                    </mxGeometry>
                </mxCell>
                <mxCell id="21" value="" style="ellipse;whiteSpace=wrap;html=1;" vertex="1" parent="1">
                    <mxGeometry x="-770" y="90" width="120" height="60" as="geometry"/>
                </mxCell>
                <mxCell id="22" value="&lt;span style=&quot;color: rgb(189, 193, 198); font-family: arial, sans-serif; font-size: 16px; text-align: left; background-color: rgb(32, 33, 36);&quot;&gt;Street address&amp;nbsp;&lt;/span&gt;" style="text;strokeColor=none;align=center;fillColor=none;html=1;verticalAlign=middle;whiteSpace=wrap;rounded=0;" vertex="1" parent="1">
                    <mxGeometry x="-740" y="105" width="60" height="30" as="geometry"/>
                </mxCell>
                <mxCell id="23" value="" style="endArrow=none;html=1;exitX=1;exitY=0.5;exitDx=0;exitDy=0;entryX=0;entryY=0.5;entryDx=0;entryDy=0;" edge="1" parent="1" source="21" target="11">
                    <mxGeometry width="50" height="50" relative="1" as="geometry">
                        <mxPoint x="-90" y="240" as="sourcePoint"/>
                        <mxPoint x="-40" y="190" as="targetPoint"/>
                    </mxGeometry>
                </mxCell>
                <mxCell id="24" value="" style="ellipse;whiteSpace=wrap;html=1;" vertex="1" parent="1">
                    <mxGeometry x="-680" y="210" width="120" height="60" as="geometry"/>
                </mxCell>
                <mxCell id="25" value="&lt;span style=&quot;color: rgb(189, 193, 198); font-family: arial, sans-serif; font-size: 16px; text-align: left; background-color: rgb(32, 33, 36);&quot;&gt;City&lt;/span&gt;" style="text;strokeColor=none;align=center;fillColor=none;html=1;verticalAlign=middle;whiteSpace=wrap;rounded=0;" vertex="1" parent="1">
                    <mxGeometry x="-650" y="225" width="60" height="30" as="geometry"/>
                </mxCell>
                <mxCell id="26" value="" style="endArrow=none;html=1;exitX=0.617;exitY=-0.073;exitDx=0;exitDy=0;exitPerimeter=0;entryX=0.37;entryY=1.083;entryDx=0;entryDy=0;entryPerimeter=0;" edge="1" parent="1" source="24" target="11">
                    <mxGeometry width="50" height="50" relative="1" as="geometry">
                        <mxPoint x="-90" y="250" as="sourcePoint"/>
                        <mxPoint x="-40" y="200" as="targetPoint"/>
                    </mxGeometry>
                </mxCell>
                <mxCell id="27" value="" style="ellipse;whiteSpace=wrap;html=1;" vertex="1" parent="1">
                    <mxGeometry x="-345" y="-20" width="120" height="60" as="geometry"/>
                </mxCell>
                <mxCell id="28" value="&lt;span style=&quot;color: rgb(189, 193, 198); font-family: arial, sans-serif; font-size: 16px; text-align: left; background-color: rgb(32, 33, 36);&quot;&gt;State&lt;/span&gt;" style="text;strokeColor=none;align=center;fillColor=none;html=1;verticalAlign=middle;whiteSpace=wrap;rounded=0;" vertex="1" parent="1">
                    <mxGeometry x="-315" width="60" height="30" as="geometry"/>
                </mxCell>
                <mxCell id="29" value="" style="endArrow=none;html=1;entryX=0;entryY=1;entryDx=0;entryDy=0;exitX=1;exitY=0;exitDx=0;exitDy=0;" edge="1" parent="1" source="11" target="27">
                    <mxGeometry width="50" height="50" relative="1" as="geometry">
                        <mxPoint x="-474.4100000000001" y="93.98000000000002" as="sourcePoint"/>
                        <mxPoint x="-415" y="20" as="targetPoint"/>
                    </mxGeometry>
                </mxCell>
                <mxCell id="30" value="" style="ellipse;whiteSpace=wrap;html=1;" vertex="1" parent="1">
                    <mxGeometry x="-605" y="-105" width="120" height="60" as="geometry"/>
                </mxCell>
                <mxCell id="31" value="&lt;span style=&quot;color: rgb(189, 193, 198); font-family: arial, sans-serif; font-size: 16px; text-align: left; background-color: rgb(32, 33, 36);&quot;&gt;&amp;nbsp;ZIP code&lt;/span&gt;" style="text;strokeColor=none;align=center;fillColor=none;html=1;verticalAlign=middle;whiteSpace=wrap;rounded=0;" vertex="1" parent="1">
                    <mxGeometry x="-575" y="-90" width="60" height="30" as="geometry"/>
                </mxCell>
                <mxCell id="32" value="" style="endArrow=none;html=1;entryX=0.5;entryY=1;entryDx=0;entryDy=0;exitX=0.25;exitY=0;exitDx=0;exitDy=0;" edge="1" parent="1" source="11" target="30">
                    <mxGeometry width="50" height="50" relative="1" as="geometry">
                        <mxPoint x="-90" y="260" as="sourcePoint"/>
                        <mxPoint x="-40" y="210" as="targetPoint"/>
                    </mxGeometry>
                </mxCell>
                <mxCell id="33" value="" style="ellipse;whiteSpace=wrap;html=1;" vertex="1" parent="1">
                    <mxGeometry x="-515" y="210" width="120" height="60" as="geometry"/>
                </mxCell>
                <mxCell id="34" value="&lt;span style=&quot;color: rgb(189, 193, 198); font-family: arial, sans-serif; font-size: 16px; text-align: left; background-color: rgb(32, 33, 36);&quot;&gt;Country&lt;/span&gt;" style="text;strokeColor=none;align=center;fillColor=none;html=1;verticalAlign=middle;whiteSpace=wrap;rounded=0;" vertex="1" parent="1">
                    <mxGeometry x="-485" y="225" width="60" height="30" as="geometry"/>
                </mxCell>
                <mxCell id="35" value="" style="endArrow=none;html=1;entryX=0.75;entryY=1;entryDx=0;entryDy=0;exitX=0.362;exitY=0.007;exitDx=0;exitDy=0;exitPerimeter=0;" edge="1" parent="1" source="33" target="11">
                    <mxGeometry width="50" height="50" relative="1" as="geometry">
                        <mxPoint x="-90" y="260" as="sourcePoint"/>
                        <mxPoint x="-40" y="210" as="targetPoint"/>
                    </mxGeometry>
                </mxCell>
                <mxCell id="36" value="1" style="text;html=1;strokeColor=none;fillColor=none;align=center;verticalAlign=middle;whiteSpace=wrap;rounded=0;" vertex="1" parent="1">
                    <mxGeometry x="-415" y="75" width="50" height="30" as="geometry"/>
                </mxCell>
                <mxCell id="37" value="1" style="text;html=1;strokeColor=none;fillColor=none;align=center;verticalAlign=middle;whiteSpace=wrap;rounded=0;" vertex="1" parent="1">
                    <mxGeometry x="135" y="80" width="50" height="30" as="geometry"/>
                </mxCell>
                <mxCell id="42" value="" style="endArrow=none;html=1;entryX=0;entryY=1;entryDx=0;entryDy=0;" edge="1" parent="1" target="4gBBqAU6jfUx5KSsTvPd-1">
                    <mxGeometry width="50" height="50" relative="1" as="geometry">
                        <mxPoint x="210" y="200" as="sourcePoint"/>
                        <mxPoint x="380" y="210" as="targetPoint"/>
                    </mxGeometry>
                </mxCell>
                <mxCell id="43" value="" style="rounded=0;whiteSpace=wrap;html=1;" vertex="1" parent="1">
                    <mxGeometry x="-710" y="430" width="130" height="50" as="geometry"/>
                </mxCell>
                <mxCell id="44" value="Has" style="rhombus;whiteSpace=wrap;html=1;rotation=-15;" vertex="1" parent="1">
                    <mxGeometry x="-240" y="210" width="80" height="80" as="geometry"/>
                </mxCell>
                <mxCell id="45" value="" style="endArrow=none;html=1;exitX=1;exitY=0.5;exitDx=0;exitDy=0;" edge="1" parent="1" source="44">
                    <mxGeometry width="50" height="50" relative="1" as="geometry">
                        <mxPoint x="-180" y="260" as="sourcePoint"/>
                        <mxPoint x="360" y="130" as="targetPoint"/>
                    </mxGeometry>
                </mxCell>
                <mxCell id="48" value="" style="endArrow=none;html=1;exitX=1;exitY=0;exitDx=0;exitDy=0;entryX=0;entryY=0.5;entryDx=0;entryDy=0;" edge="1" parent="1" source="43" target="44">
                    <mxGeometry width="50" height="50" relative="1" as="geometry">
                        <mxPoint x="-180" y="260" as="sourcePoint"/>
                        <mxPoint x="-130" y="210" as="targetPoint"/>
                    </mxGeometry>
                </mxCell>
                <mxCell id="49" value="Phone Number" style="text;strokeColor=none;align=center;fillColor=none;html=1;verticalAlign=middle;whiteSpace=wrap;rounded=0;" vertex="1" parent="1">
                    <mxGeometry x="-675" y="440" width="60" height="30" as="geometry"/>
                </mxCell>
                <mxCell id="50" value="" style="ellipse;whiteSpace=wrap;html=1;" vertex="1" parent="1">
                    <mxGeometry x="-770" y="330" width="120" height="60" as="geometry"/>
                </mxCell>
                <mxCell id="51" value="&lt;span style=&quot;color: rgb(189, 193, 198); font-family: arial, sans-serif; font-size: 16px; text-align: left; background-color: rgb(32, 33, 36);&quot;&gt;Mobile Number&lt;/span&gt;" style="text;strokeColor=none;align=center;fillColor=none;html=1;verticalAlign=middle;whiteSpace=wrap;rounded=0;" vertex="1" parent="1">
                    <mxGeometry x="-735" y="345" width="60" height="30" as="geometry"/>
                </mxCell>
                <mxCell id="52" value="" style="endArrow=none;html=1;entryX=0.5;entryY=1;entryDx=0;entryDy=0;" edge="1" parent="1" target="50">
                    <mxGeometry width="50" height="50" relative="1" as="geometry">
                        <mxPoint x="-670" y="430" as="sourcePoint"/>
                        <mxPoint x="-10" y="190" as="targetPoint"/>
                    </mxGeometry>
                </mxCell>
                <mxCell id="53" value="" style="ellipse;whiteSpace=wrap;html=1;" vertex="1" parent="1">
                    <mxGeometry x="-760" y="515" width="120" height="60" as="geometry"/>
                </mxCell>
                <mxCell id="54" value="&lt;span style=&quot;color: rgb(189, 193, 198); font-family: arial, sans-serif; font-size: 16px; text-align: left; background-color: rgb(32, 33, 36);&quot;&gt;Home Number&lt;/span&gt;" style="text;strokeColor=none;align=center;fillColor=none;html=1;verticalAlign=middle;whiteSpace=wrap;rounded=0;" vertex="1" parent="1">
                    <mxGeometry x="-735" y="530" width="60" height="30" as="geometry"/>
                </mxCell>
                <mxCell id="55" value="" style="endArrow=none;html=1;entryX=0.25;entryY=1;entryDx=0;entryDy=0;exitX=0.5;exitY=0;exitDx=0;exitDy=0;" edge="1" parent="1" source="53" target="43">
                    <mxGeometry width="50" height="50" relative="1" as="geometry">
                        <mxPoint x="-60" y="440" as="sourcePoint"/>
                        <mxPoint x="-10" y="390" as="targetPoint"/>
                    </mxGeometry>
                </mxCell>
                <mxCell id="58" value="" style="ellipse;whiteSpace=wrap;html=1;" vertex="1" parent="1">
                    <mxGeometry x="-600" y="545" width="120" height="60" as="geometry"/>
                </mxCell>
                <mxCell id="59" value="&lt;span style=&quot;color: rgb(189, 193, 198); font-family: arial, sans-serif; font-size: 16px; text-align: left; background-color: rgb(32, 33, 36);&quot;&gt;Work Place Number&lt;/span&gt;" style="text;strokeColor=none;align=center;fillColor=none;html=1;verticalAlign=middle;whiteSpace=wrap;rounded=0;" vertex="1" parent="1">
                    <mxGeometry x="-590" y="560" width="100" height="30" as="geometry"/>
                </mxCell>
                <mxCell id="60" value="" style="endArrow=none;html=1;entryX=0.75;entryY=1;entryDx=0;entryDy=0;exitX=0.323;exitY=-0.003;exitDx=0;exitDy=0;exitPerimeter=0;" edge="1" parent="1" source="58" target="43">
                    <mxGeometry width="50" height="50" relative="1" as="geometry">
                        <mxPoint x="-60" y="430" as="sourcePoint"/>
                        <mxPoint x="-10" y="380" as="targetPoint"/>
                    </mxGeometry>
                </mxCell>
                <mxCell id="62" value="" style="ellipse;whiteSpace=wrap;html=1;" vertex="1" parent="1">
                    <mxGeometry x="-615" y="315" width="120" height="60" as="geometry"/>
                </mxCell>
                <mxCell id="63" value="&lt;span style=&quot;color: rgb(189, 193, 198); font-family: arial, sans-serif; font-size: 16px; text-align: left; background-color: rgb(32, 33, 36);&quot;&gt;&lt;b&gt;&lt;u&gt;ID&lt;/u&gt;&lt;/b&gt;&lt;/span&gt;" style="text;strokeColor=none;align=center;fillColor=none;html=1;verticalAlign=middle;whiteSpace=wrap;rounded=0;" vertex="1" parent="1">
                    <mxGeometry x="-580" y="330" width="60" height="30" as="geometry"/>
                </mxCell>
                <mxCell id="64" value="" style="endArrow=none;html=1;entryX=0.342;entryY=0.977;entryDx=0;entryDy=0;entryPerimeter=0;exitX=0.75;exitY=0;exitDx=0;exitDy=0;" edge="1" parent="1" source="43" target="62">
                    <mxGeometry width="50" height="50" relative="1" as="geometry">
                        <mxPoint x="-60" y="440" as="sourcePoint"/>
                        <mxPoint x="-10" y="390" as="targetPoint"/>
                    </mxGeometry>
                </mxCell>
                <mxCell id="65" value="" style="ellipse;whiteSpace=wrap;html=1;" vertex="1" parent="1">
                    <mxGeometry x="-830" y="5" width="120" height="60" as="geometry"/>
                </mxCell>
                <mxCell id="68" value="&lt;span style=&quot;color: rgb(189, 193, 198); font-family: arial, sans-serif; font-size: 16px; text-align: left; background-color: rgb(32, 33, 36);&quot;&gt;&lt;b&gt;&lt;u&gt;ID&lt;/u&gt;&lt;/b&gt;&lt;/span&gt;" style="text;strokeColor=none;align=center;fillColor=none;html=1;verticalAlign=middle;whiteSpace=wrap;rounded=0;" vertex="1" parent="1">
                    <mxGeometry x="-800" y="20" width="60" height="30" as="geometry"/>
                </mxCell>
                <mxCell id="69" value="" style="endArrow=none;html=1;exitX=1;exitY=0.5;exitDx=0;exitDy=0;entryX=0;entryY=0.25;entryDx=0;entryDy=0;" edge="1" parent="1" source="65" target="11">
                    <mxGeometry width="50" height="50" relative="1" as="geometry">
                        <mxPoint x="-629.5999999999999" y="28.38000000000011" as="sourcePoint"/>
                        <mxPoint x="-580" y="90" as="targetPoint"/>
                    </mxGeometry>
                </mxCell>
                <mxCell id="70" value="1" style="text;html=1;strokeColor=none;fillColor=none;align=center;verticalAlign=middle;whiteSpace=wrap;rounded=0;" vertex="1" parent="1">
                    <mxGeometry x="-295" y="240" width="50" height="30" as="geometry"/>
                </mxCell>
                <mxCell id="71" value="1" style="text;html=1;strokeColor=none;fillColor=none;align=center;verticalAlign=middle;whiteSpace=wrap;rounded=0;" vertex="1" parent="1">
                    <mxGeometry x="-170" y="200" width="50" height="30" as="geometry"/>
                </mxCell>
                <mxCell id="78" value="" style="rounded=0;whiteSpace=wrap;html=1;" vertex="1" parent="1">
                    <mxGeometry x="1310" y="150" width="130" height="50" as="geometry"/>
                </mxCell>
                <mxCell id="79" value="Reveiw" style="text;strokeColor=none;align=center;fillColor=none;html=1;verticalAlign=middle;whiteSpace=wrap;rounded=0;" vertex="1" parent="1">
                    <mxGeometry x="1345" y="160" width="60" height="30" as="geometry"/>
                </mxCell>
                <mxCell id="80" value="Has" style="rhombus;whiteSpace=wrap;html=1;rotation=-30;" vertex="1" parent="1">
                    <mxGeometry x="980" y="280" width="70" height="60" as="geometry"/>
                </mxCell>
                <mxCell id="81" value="" style="endArrow=none;html=1;entryX=0;entryY=1;entryDx=0;entryDy=0;exitX=1;exitY=0.5;exitDx=0;exitDy=0;" edge="1" parent="1" source="80" target="78">
                    <mxGeometry width="50" height="50" relative="1" as="geometry">
                        <mxPoint x="1010" y="240" as="sourcePoint"/>
                        <mxPoint x="1060" y="190" as="targetPoint"/>
                    </mxGeometry>
                </mxCell>
                <mxCell id="82" value="" style="endArrow=none;html=1;exitX=1;exitY=0.25;exitDx=0;exitDy=0;entryX=0;entryY=0.5;entryDx=0;entryDy=0;" edge="1" parent="1" source="4gBBqAU6jfUx5KSsTvPd-55" target="80">
                    <mxGeometry width="50" height="50" relative="1" as="geometry">
                        <mxPoint x="1010" y="240" as="sourcePoint"/>
                        <mxPoint x="1060" y="190" as="targetPoint"/>
                    </mxGeometry>
                </mxCell>
                <mxCell id="83" value="M" style="text;html=1;strokeColor=none;fillColor=none;align=center;verticalAlign=middle;whiteSpace=wrap;rounded=0;" vertex="1" parent="1">
                    <mxGeometry x="1260" y="170" width="50" height="30" as="geometry"/>
                </mxCell>
                <mxCell id="84" value="1" style="text;html=1;strokeColor=none;fillColor=none;align=center;verticalAlign=middle;whiteSpace=wrap;rounded=0;" vertex="1" parent="1">
                    <mxGeometry x="650" y="470" width="50" height="30" as="geometry"/>
                </mxCell>
                <mxCell id="85" value="" style="ellipse;whiteSpace=wrap;html=1;" vertex="1" parent="1">
                    <mxGeometry x="1530" y="120" width="100" height="50" as="geometry"/>
                </mxCell>
                <mxCell id="86" value="&lt;u style=&quot;&quot;&gt;ID&lt;/u&gt;" style="text;strokeColor=none;align=center;fillColor=none;html=1;verticalAlign=middle;whiteSpace=wrap;rounded=0;" vertex="1" parent="1">
                    <mxGeometry x="1540" y="130" width="60" height="30" as="geometry"/>
                </mxCell>
                <mxCell id="87" value="" style="endArrow=none;html=1;exitX=1;exitY=0.25;exitDx=0;exitDy=0;entryX=0;entryY=0.5;entryDx=0;entryDy=0;" edge="1" parent="1" source="78" target="85">
                    <mxGeometry width="50" height="50" relative="1" as="geometry">
                        <mxPoint x="1010" y="240" as="sourcePoint"/>
                        <mxPoint x="1540" y="145" as="targetPoint"/>
                    </mxGeometry>
                </mxCell>
                <mxCell id="90" value="" style="ellipse;whiteSpace=wrap;html=1;" vertex="1" parent="1">
                    <mxGeometry x="1440" y="220" width="100" height="50" as="geometry"/>
                </mxCell>
                <mxCell id="91" value="Subject" style="text;strokeColor=none;align=center;fillColor=none;html=1;verticalAlign=middle;whiteSpace=wrap;rounded=0;" vertex="1" parent="1">
                    <mxGeometry x="1460" y="230" width="60" height="30" as="geometry"/>
                </mxCell>
                <mxCell id="92" value="" style="endArrow=none;html=1;entryX=0.923;entryY=1;entryDx=0;entryDy=0;entryPerimeter=0;exitX=0;exitY=0;exitDx=0;exitDy=0;" edge="1" parent="1" source="90" target="78">
                    <mxGeometry width="50" height="50" relative="1" as="geometry">
                        <mxPoint x="1520" y="340" as="sourcePoint"/>
                        <mxPoint x="1570" y="290" as="targetPoint"/>
                    </mxGeometry>
                </mxCell>
                <mxCell id="93" value="" style="ellipse;whiteSpace=wrap;html=1;" vertex="1" parent="1">
                    <mxGeometry x="1325" y="50" width="100" height="50" as="geometry"/>
                </mxCell>
                <mxCell id="94" value="Body" style="text;strokeColor=none;align=center;fillColor=none;html=1;verticalAlign=middle;whiteSpace=wrap;rounded=0;" vertex="1" parent="1">
                    <mxGeometry x="1345" y="60" width="60" height="30" as="geometry"/>
                </mxCell>
                <mxCell id="95" value="" style="endArrow=none;html=1;entryX=0.5;entryY=1;entryDx=0;entryDy=0;exitX=0.577;exitY=0.02;exitDx=0;exitDy=0;exitPerimeter=0;" edge="1" parent="1" source="78" target="93">
                    <mxGeometry width="50" height="50" relative="1" as="geometry">
                        <mxPoint x="1520" y="340" as="sourcePoint"/>
                        <mxPoint x="1570" y="290" as="targetPoint"/>
                    </mxGeometry>
                </mxCell>
                <mxCell id="96" value="" style="ellipse;whiteSpace=wrap;html=1;" vertex="1" parent="1">
                    <mxGeometry x="1285" y="230" width="100" height="50" as="geometry"/>
                </mxCell>
                <mxCell id="97" value="Consumer_ID" style="text;strokeColor=none;align=center;fillColor=none;html=1;verticalAlign=middle;whiteSpace=wrap;rounded=0;" vertex="1" parent="1">
                    <mxGeometry x="1310" y="240" width="60" height="30" as="geometry"/>
                </mxCell>
                <mxCell id="98" value="" style="endArrow=none;html=1;entryX=0.307;entryY=0.995;entryDx=0;entryDy=0;entryPerimeter=0;exitX=0.5;exitY=0;exitDx=0;exitDy=0;" edge="1" parent="1" source="96" target="78">
                    <mxGeometry width="50" height="50" relative="1" as="geometry">
                        <mxPoint x="1170" y="340" as="sourcePoint"/>
                        <mxPoint x="1220" y="290" as="targetPoint"/>
                    </mxGeometry>
                </mxCell>
                <mxCell id="99" value="" style="ellipse;whiteSpace=wrap;html=1;" vertex="1" parent="1">
                    <mxGeometry x="1450" y="55" width="100" height="50" as="geometry"/>
                </mxCell>
                <mxCell id="101" value="Image Path" style="text;strokeColor=none;align=center;fillColor=none;html=1;verticalAlign=middle;whiteSpace=wrap;rounded=0;" vertex="1" parent="1">
                    <mxGeometry x="1470" y="65" width="60" height="30" as="geometry"/>
                </mxCell>
                <mxCell id="102" value="" style="endArrow=none;html=1;entryX=0.322;entryY=0.965;entryDx=0;entryDy=0;entryPerimeter=0;exitX=1;exitY=0;exitDx=0;exitDy=0;" edge="1" parent="1" source="78" target="99">
                    <mxGeometry width="50" height="50" relative="1" as="geometry">
                        <mxPoint x="1330" y="180" as="sourcePoint"/>
                        <mxPoint x="1380" y="130" as="targetPoint"/>
                    </mxGeometry>
                </mxCell>
                <mxCell id="103" value="" style="ellipse;whiteSpace=wrap;html=1;" vertex="1" parent="1">
                    <mxGeometry x="95" y="1150" width="100" height="50" as="geometry"/>
                </mxCell>
                <mxCell id="104" value="Image_Pathe" style="text;strokeColor=none;align=center;fillColor=none;html=1;verticalAlign=middle;whiteSpace=wrap;rounded=0;" vertex="1" parent="1">
                    <mxGeometry x="115" y="1160" width="60" height="30" as="geometry"/>
                </mxCell>
                <mxCell id="105" value="" style="endArrow=none;html=1;exitX=0.5;exitY=1;exitDx=0;exitDy=0;entryX=0.393;entryY=-0.065;entryDx=0;entryDy=0;entryPerimeter=0;" edge="1" parent="1" source="4gBBqAU6jfUx5KSsTvPd-175" target="103">
                    <mxGeometry width="50" height="50" relative="1" as="geometry">
                        <mxPoint x="280" y="1100" as="sourcePoint"/>
                        <mxPoint x="330" y="1050" as="targetPoint"/>
                    </mxGeometry>
                </mxCell>
            </root>
        </mxGraphModel>
    </diagram>
</mxfile>